<svg id="bfecf772-1281-46a6-b578-aa97f363c6e6" data-name="Logo" xmlns="http://www.w3.org/2000/svg" viewBox="0 0 1128 727">
  <title>Logo-V3</title>
  <g id="b939c65b-6d4d-4ecc-9b6a-fd99a131b33c" data-name="Portrait-BlackBG">
    <g>
      <polygon points="661.01 293.517 564 196.507 466.99 293.517 369.981 196.507 321.476 245.012 418.486 342.022 466.99 390.526 564 293.517 661.01 390.526 806.524 245.012 758.019 196.507 661.01 293.517" style="fill: #003eff"/>
      <rect x="529.7019" y="16.6947" width="68.5961" height="68.5961" transform="translate(129.1344 413.7437) rotate(-45)" style="fill: #f9f9f9"/>
      <rect x="529.7019" y="404.7331" width="68.5961" height="68.5961" transform="translate(-145.2501 527.3975) rotate(-45)" style="fill: #f9f9f9"/>
      <rect x="432.6923" y="113.7043" width="68.5961" height="68.5961" transform="translate(32.1248 373.561) rotate(-45)" style="fill: #f9f9f9"/>
      <rect x="626.7115" y="113.7043" width="68.5961" height="68.5961" transform="translate(88.9517 510.7533) rotate(-45)" style="fill: #f9f9f9"/>
    </g>
    <g>
      <g>
        <path d="M110.21,721.7477H79.3755l-14.46-131.4154L50.6686,721.7477H19.8344L1.972,558.86h21.69L35.783,684.7469,49.8174,558.86H80.2261L94.261,684.7469,106.3818,558.86h21.69Z" style="fill: #f9f9f9"/>
        <path d="M191.23,721.7477l-4.2524-36.15H162.9479l-4.2529,36.15h-21.69L158.9075,558.86h31.8973L212.92,721.7477ZM174.8561,583.74l-9.5689,81.2308h19.1379Z" style="fill: #f9f9f9"/>
        <path d="M242.9049,721.7477V665.184L215.8986,558.86h21.9028l15.948,73.7886L270.1237,558.86h21.9028L264.5946,664.9709v56.7768Z" style="fill: #f9f9f9"/>
        <path d="M309.2507,721.7477V558.86h58.2649v20.6272H330.941v49.759h35.0865v20.6272H330.941v71.8743Z" style="fill: #f9f9f9"/>
        <path d="M432.3739,721.7477l-4.2523-36.15H404.0921l-4.253,36.15h-21.69L400.0516,558.86h31.8973l22.1153,162.8877ZM416,583.74l-9.569,81.2308h19.1379Z" style="fill: #f9f9f9"/>
        <path d="M520.835,721.7477l-18.7129-66.9839h-8.2934v66.9839h-21.69V558.86h36.15c16.3736,0,29.9824,9.57,29.9824,34.0235v26.1557c0,16.3736-3.8273,25.9432-15.7356,31.0467l19.9891,71.6618Zm-4.253-126.0993c0-11.9083-3.8273-16.1612-11.9082-16.1612H493.8287v54.65h10.8451c8.0809,0,11.9082-4.253,11.9082-16.1612Z" style="fill: #f9f9f9"/>
        <path d="M561.0257,721.7477V558.86h58.2649v20.6272H582.7159v49.759h35.086v20.6272h-35.086v51.2477h36.5747v20.6266Z" style="fill: #f9f9f9"/>
      </g>
      <g>
        <path d="M712.8527,674.3273c0-22.3277-37-34.0234-37-65.92v-20.84c0-28.2819,15.5231-31.4717,25.0914-31.4717s25.0926,3.19,25.0926,31.8973v27.6437H712.8527V584.3776c0-11.9082-5.9535-16.1605-11.9082-16.1605s-11.9082,4.2523-11.9082,16.1605v22.1153c0,28.92,37.0008,35.0872,37.0008,65.4958v16.3736c0,23.6034-5.316,36.15-25.0926,36.15s-25.0914-12.9713-25.0914-36.15V667.31h13.1832v28.92c0,11.9082,5.9547,16.1612,11.9082,16.1612s11.9082-4.253,11.9082-16.1612Z" style="fill: #003eff"/>
        <path d="M763.2505,721.7477V572.0444H743.0489V558.86h53.5876v13.1844H776.4349V721.7477Z" style="fill: #003eff"/>
        <path d="M852.349,558.86h13.1832V690.4885c0,27.4319-10.632,34.0235-25.0926,34.0235s-25.0914-6.5916-25.0914-34.0235V558.86h13.1844V696.23c0,11.27,5.316,16.1612,11.907,16.1612S852.349,707.5,852.349,696.23Z" style="fill: #003eff"/>
        <path d="M890.8385,721.7477V558.86H911.04c20.6266,0,28.92,5.3166,28.92,34.0235v94.8407c0,28.7075-8.2934,34.0235-28.92,34.0235Zm35.9372-133.5421c0-11.9083-3.8274-16.1612-11.9082-16.1612H904.0229V708.5633h10.8446c8.0808,0,11.9082-4.2523,11.9082-16.1605Z" style="fill: #003eff"/>
        <path d="M964.8414,721.7477V558.86h13.1844V721.7477Z" style="fill: #003eff"/>
        <path d="M1002.9047,590.1192c0-27.4312,10.6333-34.0234,25.0926-34.0234s25.0927,6.5922,25.0927,34.0234V690.4885c0,27.4319-10.6321,34.0235-25.0927,34.0235s-25.0926-6.5916-25.0926-34.0235Zm37.0009-5.7416c0-11.27-5.3161-16.1605-11.9083-16.1605s-11.9082,4.89-11.9082,16.1605V696.23c0,11.27,5.316,16.1612,11.9082,16.1612s11.9083-4.8911,11.9083-16.1612Z" style="fill: #003eff"/>
        <path d="M1112.8435,674.3273c0-22.3277-37-34.0234-37-65.92v-20.84c0-28.2819,15.5231-31.4717,25.0914-31.4717s25.0927,3.19,25.0927,31.8973v27.6437h-13.1845V584.3776c0-11.9082-5.9535-16.1605-11.9082-16.1605s-11.9082,4.2523-11.9082,16.1605v22.1153c0,28.92,37.0009,35.0872,37.0009,65.4958v16.3736c0,23.6034-5.3161,36.15-25.0927,36.15s-25.0914-12.9713-25.0914-36.15V667.31h13.1832v28.92c0,11.9082,5.9547,16.1612,11.9082,16.1612s11.9082-4.253,11.9082-16.1612Z" style="fill: #003eff"/>
      </g>
    </g>
  </g>
</svg>
