<svg id="a7dc9191-edb9-4b1e-ba93-32253e330a77" data-name="Layer 1" xmlns="http://www.w3.org/2000/svg" viewBox="0 0 300 300">
  <title>dots-corner</title>
  <circle cx="291" cy="12" r="2"/>
  <circle cx="291" cy="32" r="2"/>
  <circle cx="291" cy="52" r="2"/>
  <circle cx="291" cy="72" r="2"/>
  <circle cx="291" cy="92" r="2"/>
  <circle cx="291" cy="112" r="2"/>
  <circle cx="291" cy="132" r="2"/>
  <circle cx="291" cy="152" r="2"/>
  <circle cx="291" cy="172" r="2"/>
  <circle cx="291" cy="192" r="2"/>
  <circle cx="291" cy="212" r="2"/>
  <circle cx="291" cy="232" r="2"/>
  <circle cx="291" cy="252" r="2"/>
  <circle cx="291" cy="272" r="2"/>
  <circle cx="291" cy="292" r="2"/>
  <circle cx="271" cy="32" r="2"/>
  <circle cx="271" cy="52" r="2"/>
  <circle cx="271" cy="72" r="2"/>
  <circle cx="271" cy="92" r="2"/>
  <circle cx="271" cy="112" r="2"/>
  <circle cx="271" cy="132" r="2"/>
  <circle cx="271" cy="152" r="2"/>
  <circle cx="271" cy="172" r="2"/>
  <circle cx="271" cy="192" r="2"/>
  <circle cx="271" cy="212" r="2"/>
  <circle cx="271" cy="232" r="2"/>
  <circle cx="271" cy="252" r="2"/>
  <circle cx="271" cy="272" r="2"/>
  <circle cx="271" cy="292" r="2"/>
  <circle cx="251" cy="52" r="2"/>
  <circle cx="251" cy="72" r="2"/>
  <circle cx="251" cy="92" r="2"/>
  <circle cx="251" cy="112" r="2"/>
  <circle cx="251" cy="132" r="2"/>
  <circle cx="251" cy="152" r="2"/>
  <circle cx="251" cy="172" r="2"/>
  <circle cx="251" cy="192" r="2"/>
  <circle cx="251" cy="212" r="2"/>
  <circle cx="251" cy="232" r="2"/>
  <circle cx="251" cy="252" r="2"/>
  <circle cx="251" cy="272" r="2"/>
  <circle cx="251" cy="292" r="2"/>
  <circle cx="231" cy="72" r="2"/>
  <circle cx="231" cy="92" r="2"/>
  <circle cx="231" cy="112" r="2"/>
  <circle cx="231" cy="132" r="2"/>
  <circle cx="231" cy="152" r="2"/>
  <circle cx="231" cy="172" r="2"/>
  <circle cx="231" cy="192" r="2"/>
  <circle cx="231" cy="212" r="2"/>
  <circle cx="231" cy="232" r="2"/>
  <circle cx="231" cy="252" r="2"/>
  <circle cx="231" cy="272" r="2"/>
  <circle cx="231" cy="292" r="2"/>
  <circle cx="211" cy="92" r="2"/>
  <circle cx="211" cy="112" r="2"/>
  <circle cx="211" cy="132" r="2"/>
  <circle cx="211" cy="152" r="2"/>
  <circle cx="211" cy="172" r="2"/>
  <circle cx="211" cy="192" r="2"/>
  <circle cx="211" cy="212" r="2"/>
  <circle cx="211" cy="232" r="2"/>
  <circle cx="211" cy="252" r="2"/>
  <circle cx="211" cy="272" r="2"/>
  <circle cx="211" cy="292" r="2"/>
  <circle cx="191" cy="112" r="2"/>
  <circle cx="191" cy="132" r="2"/>
  <circle cx="191" cy="152" r="2"/>
  <circle cx="191" cy="172" r="2"/>
  <circle cx="191" cy="192" r="2"/>
  <circle cx="191" cy="212" r="2"/>
  <circle cx="191" cy="232" r="2"/>
  <circle cx="191" cy="252" r="2"/>
  <circle cx="191" cy="272" r="2"/>
  <circle cx="191" cy="292" r="2"/>
  <circle cx="171" cy="132" r="2"/>
  <circle cx="171" cy="152" r="2"/>
  <circle cx="171" cy="172" r="2"/>
  <circle cx="171" cy="192" r="2"/>
  <circle cx="171" cy="212" r="2"/>
  <circle cx="171" cy="232" r="2"/>
  <circle cx="171" cy="252" r="2"/>
  <circle cx="171" cy="272" r="2"/>
  <circle cx="171" cy="292" r="2"/>
  <circle cx="151" cy="152" r="2"/>
  <circle cx="151" cy="172" r="2"/>
  <circle cx="151" cy="192" r="2"/>
  <circle cx="151" cy="212" r="2"/>
  <circle cx="151" cy="232" r="2"/>
  <circle cx="151" cy="252" r="2"/>
  <circle cx="151" cy="272" r="2"/>
  <circle cx="151" cy="292" r="2"/>
  <circle cx="131" cy="172" r="2"/>
  <circle cx="131" cy="192" r="2"/>
  <circle cx="131" cy="212" r="2"/>
  <circle cx="131" cy="232" r="2"/>
  <circle cx="131" cy="252" r="2"/>
  <circle cx="131" cy="272" r="2"/>
  <circle cx="131" cy="292" r="2"/>
  <circle cx="111" cy="192" r="2"/>
  <circle cx="111" cy="212" r="2"/>
  <circle cx="111" cy="232" r="2"/>
  <circle cx="111" cy="252" r="2"/>
  <circle cx="111" cy="272" r="2"/>
  <circle cx="111" cy="292" r="2"/>
  <circle cx="91" cy="212" r="2"/>
  <circle cx="91" cy="232" r="2"/>
  <circle cx="91" cy="252" r="2"/>
  <circle cx="91" cy="272" r="2"/>
  <circle cx="91" cy="292" r="2"/>
  <circle cx="71" cy="232" r="2"/>
  <circle cx="71" cy="252" r="2"/>
  <circle cx="71" cy="272" r="2"/>
  <circle cx="71" cy="292" r="2"/>
  <circle cx="51" cy="252" r="2"/>
  <circle cx="51" cy="272" r="2"/>
  <circle cx="51" cy="292" r="2"/>
  <circle cx="31" cy="272" r="2"/>
  <circle cx="31" cy="292" r="2"/>
  <circle cx="11" cy="292" r="2"/>
</svg>
