<svg xmlns="http://www.w3.org/2000/svg" viewBox="0 0 500 500">
  <title>icon</title>
  <g id="e1028f63-e3e2-477e-93bf-4bfbfd345130" data-name="Food">
    <g>
      <path class="ef4b0ed2-d0c4-43d0-9704-801f5cf441d0" d="M280.4414,262.8984a4.5,4.5,0,0,1-3.3457-7.5068c12.0879-13.4561,20.5664-22.8921,23.3789-26.019,18.2109-20.2486,39.335-28.43,66.4785-25.7447,25.9278,2.562,44.74,1.5445,69.0235-34.54.0195-.0288.04-.0581.0595-.0864,27.1543-38.3746,37.3057-68.0782,41.04-86.2393,2.05-9.9668,2.707-19.1338,1.9023-26.5088-.917-8.4033-3.3642-11.4321-4.0918-12.16A4.5,4.5,0,1,1,481.25,37.73c7.3037,7.3032,9.082,25.2534,4.6416,46.8457-3.9062,18.9966-14.4473,49.9565-42.4775,89.5825-26.9483,40.0166-50.0137,41.1284-77.3467,38.4263-12.5528-1.24-23.4434.0957-33.3008,4.0845-9.2715,3.7529-17.6455,9.8774-25.6006,18.7231-2.8125,3.1265-11.289,12.56-23.375,26.0137A4.4892,4.4892,0,0,1,280.4414,262.8984Z"/>
      <path class="ef4b0ed2-d0c4-43d0-9704-801f5cf441d0" d="M58.7666,489.8721A28.72,28.72,0,0,1,38.3145,481.82c-.0762-.0664-.15-.1357-.2217-.208l-.3623-.3623c-.0723-.0713-.1416-.1455-.208-.2217-18.377-19.3086.3339-47.1621,1.1474-48.35a4.5064,4.5064,0,0,1,.7061-.8047S164.1592,319.7939,235.875,255.37a4.5,4.5,0,1,1,6.0137,6.6953C172.6553,324.26,53.9639,430.8691,45.8311,438.1729c-1.9991,3.1621-14.2647,23.875-1.5557,36.8925,13.0117,12.7071,33.7129.4561,36.8945-1.5556,7.27-8.0938,112.6612-125.43,175.001-194.8262a4.5,4.5,0,1,1,6.6953,6.0137C198.2754,356.6,87.4688,479.9658,87.4688,479.9658a4.5064,4.5064,0,0,1-.8047.7061C85.8643,481.2188,72.9873,489.8711,58.7666,489.8721Z"/>
      <path class="ef4b0ed2-d0c4-43d0-9704-801f5cf441d0" d="M259.8428,244.39a4.5,4.5,0,0,1-3.01-7.8476l1.6445-1.4771c13.1651-11.8276,22.39-20.1147,25.4727-22.8886,8.8467-7.9556,14.9707-16.33,18.7236-25.6011,3.9893-9.8565,5.3252-20.749,4.084-33.3-2.7031-27.3418-1.59-50.3994,38.4268-77.3472,39.625-28.0308,70.5859-38.5723,89.583-42.478,21.5928-4.44,39.5429-2.66,46.8447,4.6416a4.5,4.5,0,1,1-6.3633,6.3642c-.7285-.7285-3.7568-3.1753-12.16-4.0922-7.38-.8072-16.543-.1475-26.5088,1.9018-18.1612,3.7344-47.8653,13.8858-86.2393,41.04-.0293.02-.0576.04-.0869.06C314.1689,107.65,313.15,126.4619,315.7148,152.39c2.6836,27.1436-5.497,48.2676-25.746,66.4781-3.084,2.7744-12.31,11.0625-25.4766,22.8921l-1.6436,1.4775A4.4872,4.4872,0,0,1,259.8428,244.39Z"/>
      <path class="ef4b0ed2-d0c4-43d0-9704-801f5cf441d0" d="M460.7842,490.4434c-14.2217.0009-27.0967-8.6524-27.8965-9.1993a4.5019,4.5019,0,0,1-.8047-.706c-2.0351-2.2656-203.7129-226.8008-219.6973-244.5752-16.1328-17.9375-34.8378-25.1836-58.9-22.8071-23.2022,2.2939-33.5245-8.7276-48.4532-26.8995-5.6328-6.8559-21.6806-25.9174-38.6709-46.0981-42.71-50.73-52.2881-62.25-54.5849-65.3945A8.663,8.663,0,0,1,9.834,70.9863c-.4024-1.7558-.5645-5.2148,2.875-8.6533a9.5886,9.5886,0,0,1,6.9785-3.1855,8.214,8.214,0,0,1,5.7773,2.5678c1.0674,1.0826,82.6543,82.6558,99.3916,99.39l2.3272-2.0322-99.68-99.6456a8.095,8.095,0,0,1-2.2119-5.5727c-.0088-2.7149,1.2295-5.335,3.6826-7.7876,5.4531-5.4531,10.9883-3.8789,13.3779-1.49l100.0743,100.14,2.29-2.29L44.5791,42.3545c-2.3906-2.3906-3.9658-7.9253,1.4873-13.38,2.4443-2.4434,5.0537-3.6821,7.7578-3.6821h.03a8.1007,8.1007,0,0,1,5.5937,2.2334l99.625,99.6577,2.0323-2.3276c-16.7393-16.7417-98.294-98.31-99.4473-99.4454a8.1828,8.1828,0,0,1-2.5107-5.7246,9.6016,9.6016,0,0,1,3.1845-6.9775c3.44-3.439,6.8975-3.2778,8.6543-2.8745a8.67,8.67,0,0,1,3.7764,1.9414c3.1445,2.2969,14.668,11.8789,65.4385,54.623,20.1611,16.9737,39.2041,33.0054,46.0547,38.6338,18.1728,14.9282,29.1933,25.2554,26.9,48.4527-2.3789,24.0517,4.8682,42.7675,22.8067,58.9,17.7744,15.9853,242.31,217.6626,244.5752,219.6977a4.5019,4.5019,0,0,1,.706.8047c.8213,1.2,19.9034,29.6074.5772,48.9336A28.7571,28.7571,0,0,1,460.7842,490.4434Zm-22.4024-16.36c3.1758,2.0078,24.07,14.3789,37.0762,1.375,12.999-13,.6445-33.8809-1.376-37.0762-11.2695-10.123-226.7382-203.6567-244.1367-219.3047-20.249-18.21-28.43-39.3344-25.7461-66.478,1.8506-18.7163-6.8388-26.7973-23.6562-40.6128-6.8926-5.6626-25.9561-21.7114-46.1377-38.7031-27.543-23.188-61.7705-52.0044-64.9131-54.25a4.524,4.524,0,0,1-.4229-.2886,3.4888,3.4888,0,0,0-.373.3282c-.1289.1289-.23.2422-.31.3383,6.0195,6.0035,65.7608,65.754,102.0567,102.0562a4.5,4.5,0,0,1,.207,6.1416l-7.9658,9.1221a4.5006,4.5006,0,0,1-3.2383,1.5376,4.5573,4.5573,0,0,1-3.334-1.316L53.6016,34.4062a5.412,5.412,0,0,0-1.1709.9322c.1357-.1455-.3526.396-.4532.4975-.0566.0787-.2548.337-.3037.3951-.0342.06-.1523.2514-.18.2905l-.0058.0141L154.2627,139.2432a4.5,4.5,0,0,1,.001,6.3652l-8.6563,8.6562a4.4994,4.4994,0,0,1-3.1816,1.3179h-.001a4.4968,4.4968,0,0,1-3.1816-1.3193L36.5322,51.4854a5.3711,5.3711,0,0,0-1.1943.9458,5.4385,5.4385,0,0,0-.9317,1.17L136.9521,156.1123a4.5013,4.5013,0,0,1-.2216,6.5723l-9.1221,7.9658a4.5,4.5,0,0,1-6.1416-.2075C85.165,134.1484,25.416,74.4077,19.4111,68.3867c-.0966.08-.209.1812-.3379.31a3.3733,3.3733,0,0,0-.3291.3735,4.4865,4.4865,0,0,1,.2891.4224c2.2441,3.1411,31.041,37.3457,54.2129,64.8691,17.0088,20.2022,33.0732,39.2837,38.74,46.1817C125.8027,197.3608,133.8848,206.0513,152.6,204.2c27.1465-2.687,48.2666,5.4961,66.4775,25.7446C234.7246,247.3433,428.26,462.8125,438.3818,474.083ZM19.0625,69.5425c.0713.1221.1377.2475.1973.376A3.0848,3.0848,0,0,0,19.0625,69.5425Zm-.7012-.9077c.0293.0288.0576.0581.086.0879C18.4189,68.6919,18.39,68.6626,18.3613,68.6348Zm.5616-.7388.0175.0186ZM33.8457,53.041l.0635.0635C33.8848,53.08,33.8633,53.0586,33.8457,53.041ZM53.0625,33.8677l.0537.0532Zm16.48-14.8052a3.0615,3.0615,0,0,0,.376.1968C69.7891,19.2,69.6641,19.1338,69.542,19.0625Zm-1.6455-.1392.0146.0142Zm.7373-.562c.0273.0274.0566.0562.0869.0845C68.6914,18.418,68.6621,18.39,68.6338,18.3613Z"/>
    </g>
  </g>
</svg>
