<svg xmlns="http://www.w3.org/2000/svg" viewBox="0 0 500 500">
  <title>icon</title>
  <g id="b7da47fa-6d6c-4278-b20a-24364ecb3604" data-name="Real Estate">
    <g>
      <path class="a1c68239-eaab-4e6c-b262-39b53e7cc99a" d="M133.43,493.9482H9.4424a4.5,4.5,0,0,1,0-9H133.43a4.5,4.5,0,0,1,0,9Z"/>
      <path class="a1c68239-eaab-4e6c-b262-39b53e7cc99a" d="M76.4189,493.9482H41.8145a4.5,4.5,0,0,1-4.5-4.5V24.0869c0-.1807.249-18.0351,21.8017-18.0351S80.9189,23.9062,80.9189,24.0869V489.4482A4.5,4.5,0,0,1,76.4189,493.9482Zm-30.1044-9H71.9189V24.1279c-.0449-1.5527-.8867-9.0761-12.8027-9.0761-12.4424,0-12.8017,8.11-12.8017,9.0351Z"/>
      <path class="a1c68239-eaab-4e6c-b262-39b53e7cc99a" d="M478.8525,80.2139H76.4189a4.5,4.5,0,0,1-4.5-4.5V51.5967a4.5,4.5,0,0,1,4.5-4.5H478.8525c6.5137,0,16.2051,4.41,16.2051,16.5586S485.3662,80.2139,478.8525,80.2139Zm-397.9336-9H478.8223c2.1865-.0459,7.2353-.878,7.2353-7.5586,0-6.6934-5.0683-7.5157-7.2471-7.5586H80.9189Z"/>
      <path class="a1c68239-eaab-4e6c-b262-39b53e7cc99a" d="M422.9941,351.3008H143.9824a33.17,33.17,0,0,1-33.1318-33.1319V139.6035a33.17,33.17,0,0,1,33.1318-33.1318H422.9941a33.17,33.17,0,0,1,33.1319,33.1318V318.1689A33.17,33.17,0,0,1,422.9941,351.3008ZM143.9824,115.4717a24.1588,24.1588,0,0,0-24.1318,24.1318V318.1689a24.1588,24.1588,0,0,0,24.1318,24.1319H422.9941a24.1588,24.1588,0,0,0,24.1319-24.1319V139.6035a24.1588,24.1588,0,0,0-24.1319-24.1318Z"/>
      <g>
        <path class="a1c68239-eaab-4e6c-b262-39b53e7cc99a" d="M263.082,291.0059H181.0352a4.5,4.5,0,0,1-4.5-4.5v-66.03a4.5,4.5,0,0,1,9,0v61.53H258.582v-61.53a4.5,4.5,0,0,1,9,0v66.03A4.5,4.5,0,0,1,263.082,291.0059Z"/>
        <path class="a1c68239-eaab-4e6c-b262-39b53e7cc99a" d="M281.5664,235.6084a4.4836,4.4836,0,0,1-3.1816-1.3184l-56.66-56.6591-55.9912,55.9912a4.5,4.5,0,0,1-6.3633-6.3633L218.543,168.085a4.4982,4.4982,0,0,1,6.3632,0l59.8418,59.8418a4.5,4.5,0,0,1-3.1816,7.6816Z"/>
        <path class="a1c68239-eaab-4e6c-b262-39b53e7cc99a" d="M234.71,291.0059a4.5,4.5,0,0,1-4.5-4.5V247.4873H213.9072v39.0186a4.5,4.5,0,0,1-9,0V242.9873a4.5,4.5,0,0,1,4.5-4.5H234.71a4.5,4.5,0,0,1,4.5,4.5v43.5186A4.5,4.5,0,0,1,234.71,291.0059Z"/>
        <path class="a1c68239-eaab-4e6c-b262-39b53e7cc99a" d="M367.7324,191.9658H305.3857a4.5,4.5,0,0,1,0-9h62.3467a4.5,4.5,0,0,1,0,9Z"/>
        <path class="a1c68239-eaab-4e6c-b262-39b53e7cc99a" d="M404.4248,241.4863h-94.459a4.5,4.5,0,0,1,0-9h94.459a4.5,4.5,0,0,1,0,9Z"/>
        <path class="a1c68239-eaab-4e6c-b262-39b53e7cc99a" d="M387.9189,291.0059H305.3857a4.5,4.5,0,1,1,0-9h82.5332a4.5,4.5,0,0,1,0,9Z"/>
      </g>
      <g>
        <path class="a1c68239-eaab-4e6c-b262-39b53e7cc99a" d="M169.5781,115.4717a4.5,4.5,0,0,1-4.5-4.5V75.7139a4.5,4.5,0,0,1,9,0v35.2578A4.5,4.5,0,0,1,169.5781,115.4717Z"/>
        <path class="a1c68239-eaab-4e6c-b262-39b53e7cc99a" d="M397.3984,115.4717a4.5,4.5,0,0,1-4.5-4.5V75.7139a4.5,4.5,0,0,1,9,0v35.2578A4.5,4.5,0,0,1,397.3984,115.4717Z"/>
      </g>
      <path class="a1c68239-eaab-4e6c-b262-39b53e7cc99a" d="M263.082,493.9482H167.4609a4.5,4.5,0,1,1,0-9H263.082a4.5,4.5,0,0,1,0,9Z"/>
      <path class="a1c68239-eaab-4e6c-b262-39b53e7cc99a" d="M451.626,493.9307H299.5186a4.5,4.5,0,0,1,0-9H451.626a4.5,4.5,0,0,1,0,9Z"/>
    </g>
  </g>
</svg>
