<svg xmlns="http://www.w3.org/2000/svg" viewBox="0 0 500 500">
  <defs>
    <style>
      .bc2afe8b-3ad7-449a-b904-70b917bf3d28 {
        fill: #0030b3;
      }
    </style>
  </defs>
  <title>icon</title>
  <g id="b70b2ea6-d524-49cd-8289-5583d96bdd8e" data-name="Small Business">
    <g>
      <g>
        <path class="bc2afe8b-3ad7-449a-b904-70b917bf3d28" d="M190.6582,227.3447c-35.0644,0-63.5918-27.6074-63.5918-61.542a4.5,4.5,0,0,1,9,0c0,28.9717,24.49,52.542,54.5918,52.542s54.5928-23.57,54.5928-52.542a4.5,4.5,0,0,1,9,0C254.251,199.7373,225.7236,227.3447,190.6582,227.3447Z"/>
        <path class="bc2afe8b-3ad7-449a-b904-70b917bf3d28" d="M309.3418,227.3447c-35.0654,0-63.5928-27.6074-63.5928-61.542a4.5,4.5,0,0,1,9,0c0,28.9717,24.49,52.542,54.5928,52.542s54.5918-23.57,54.5918-52.542a4.5,4.5,0,0,1,9,0C372.9336,199.7373,344.4062,227.3447,309.3418,227.3447Z"/>
        <path class="bc2afe8b-3ad7-449a-b904-70b917bf3d28" d="M427.5264,227.3447c-35.0655,0-63.5928-27.6074-63.5928-61.542a4.5,4.5,0,0,1,9,0c0,28.9717,24.49,52.542,54.5928,52.542,29.6914,0,53.9218-22.93,54.5791-51.3564L421.1162,61.66H79.6836L17.8945,167.001c.666,28.42,24.8936,51.3437,54.5791,51.3437,30.1026,0,54.5928-23.57,54.5928-52.542a4.5,4.5,0,0,1,9,0c0,33.9346-28.5273,61.542-63.5928,61.542S8.8809,199.7373,8.8809,165.8027a4.5039,4.5039,0,0,1,.6181-2.2763L73.2246,54.8838A4.4991,4.4991,0,0,1,77.1064,52.66H423.7109a4.5005,4.5005,0,0,1,3.8946,2.2451l62.9082,108.6426a4.5024,4.5024,0,0,1,.6054,2.2548C491.1191,199.7373,462.5918,227.3447,427.5264,227.3447Z"/>
      </g>
      <path class="bc2afe8b-3ad7-449a-b904-70b917bf3d28" d="M486.6191,170.3027H13.3809a4.5,4.5,0,1,1,0-9H486.6191a4.5,4.5,0,0,1,0,9Z"/>
      <path class="bc2afe8b-3ad7-449a-b904-70b917bf3d28" d="M463.8965,447.34H39.6611a4.5,4.5,0,0,1-4.5-4.5V213.2471a4.5,4.5,0,0,1,9,0V438.34H459.3965V210.7617a4.5,4.5,0,1,1,9,0V442.84A4.5,4.5,0,0,1,463.8965,447.34Z"/>
      <path class="bc2afe8b-3ad7-449a-b904-70b917bf3d28" d="M423.7109,447.34a4.5,4.5,0,0,1-4.5-4.5V262.5918H333.6064V442.84a4.5,4.5,0,1,1-9,0V258.0918a4.5,4.5,0,0,1,4.5-4.5h94.6045a4.5,4.5,0,0,1,4.5,4.5V442.84A4.5,4.5,0,0,1,423.7109,447.34Z"/>
      <path class="bc2afe8b-3ad7-449a-b904-70b917bf3d28" d="M423.7109,408.1533H329.1064a4.5,4.5,0,0,1,0-9h94.6045a4.5,4.5,0,0,1,0,9Z"/>
      <path class="bc2afe8b-3ad7-449a-b904-70b917bf3d28" d="M275.8643,392.4092H92.9043a4.5,4.5,0,0,1-4.5-4.5V259.0918a4.5,4.5,0,0,1,4.5-4.5h182.96a4.5,4.5,0,0,1,4.5,4.5V387.9092A4.5,4.5,0,0,1,275.8643,392.4092Zm-178.46-9h173.96V263.5918H97.4043Z"/>
    </g>
  </g>
</svg>
