<svg xmlns="http://www.w3.org/2000/svg" viewBox="0 0 500 500">
  <defs>
    <style>
      .b536b72e-e0fa-4286-8604-75adf1debdc9 {
        fill: #0030b3;
      }
    </style>
  </defs>
  <title>icon</title>
  <g id="e0cff20c-35ab-41d5-ab96-d52905541594" data-name="E-Commerce">
    <g>
      <path class="b536b72e-e0fa-4286-8604-75adf1debdc9" d="M414.292,484.45H85.708a31.47,31.47,0,0,1-31.3-34.7471L83.9258,167.6514a31.4,31.4,0,0,1,31.3-28.1944H384.7744a31.4,31.4,0,0,1,31.3,28.1944l29.5176,282.0517a31.47,31.47,0,0,1-31.3,34.7471ZM115.2256,148.457A22.42,22.42,0,0,0,92.877,168.5889L63.3594,450.6406A22.4717,22.4717,0,0,0,85.708,475.45H414.292a22.4717,22.4717,0,0,0,22.3486-24.81L407.123,168.5889a22.42,22.42,0,0,0-22.3486-20.1319Z"/>
      <path class="b536b72e-e0fa-4286-8604-75adf1debdc9" d="M333.7207,228.8574a4.5,4.5,0,0,1-4.5-4.5v-123.95a99.2487,99.2487,0,0,0-11.3232-38.3593C304.2793,37.166,281.4355,24.55,250,24.55S195.7207,37.166,182.1025,62.0479a99.252,99.252,0,0,0-11.3232,38.36V224.3574a4.5,4.5,0,0,1-9,0V100.2939c0-.0625.001-.125.0039-.1875a106.4969,106.4969,0,0,1,12.2617-42.08C184.5576,38.6484,206.2686,15.55,250,15.55s65.4424,23.0986,75.9551,42.4766a106.4969,106.4969,0,0,1,12.2617,42.08c.0029.0625.0039.125.0039.1875V224.3574A4.5,4.5,0,0,1,333.7207,228.8574Z"/>
    </g>
  </g>
</svg>
