<svg xmlns="http://www.w3.org/2000/svg" viewBox="0 0 500 500">
  <title>icon</title>
  <g id="b6d42a72-bc13-4e98-9c31-e4f106dae91e" data-name="Entertainment">
    <g>
      <g>
        <path class="f8ee9468-9e96-4f84-b955-8046889c1851" d="M480.377,458.457H37.1826a4.5,4.5,0,0,1-4.5-4.5V266.4551a4.5,4.5,0,0,1,4.5-4.5H480.377a4.5,4.5,0,0,1,4.5,4.5V453.957A4.5,4.5,0,0,1,480.377,458.457Zm-438.6944-9H475.877V270.9551H41.6826Z"/>
        <path class="f8ee9468-9e96-4f84-b955-8046889c1851" d="M110.6758,399.0234a4.5,4.5,0,0,1-4.5-4.5V266.4551a4.5,4.5,0,0,1,9,0V394.5234A4.5,4.5,0,0,1,110.6758,399.0234Z"/>
        <path class="f8ee9468-9e96-4f84-b955-8046889c1851" d="M440.1475,320.3359H159.3389a4.5,4.5,0,0,1,0-9H440.1475a4.5,4.5,0,0,1,0,9Z"/>
        <path class="f8ee9468-9e96-4f84-b955-8046889c1851" d="M269.0986,357.2852H156.8975a4.5,4.5,0,1,1,0-9H269.0986a4.5,4.5,0,0,1,0,9Z"/>
        <path class="f8ee9468-9e96-4f84-b955-8046889c1851" d="M440.1475,357.2852H371.9629a4.5,4.5,0,0,1,0-9h68.1846a4.5,4.5,0,0,1,0,9Z"/>
        <path class="f8ee9468-9e96-4f84-b955-8046889c1851" d="M441.53,421.7109H406.2861a4.5,4.5,0,0,1,0-9H441.53a4.5,4.5,0,0,1,0,9Z"/>
        <path class="f8ee9468-9e96-4f84-b955-8046889c1851" d="M390.1523,421.7109H354.91a4.5,4.5,0,0,1,0-9h35.2421a4.5,4.5,0,0,1,0,9Z"/>
        <path class="f8ee9468-9e96-4f84-b955-8046889c1851" d="M110.6758,435.86a4.5,4.5,0,0,1-4.5-4.5V410.377a4.5,4.5,0,0,1,9,0V431.36A4.5,4.5,0,0,1,110.6758,435.86Z"/>
      </g>
      <g>
        <path class="f8ee9468-9e96-4f84-b955-8046889c1851" d="M360.7393,270.9561a4.5008,4.5008,0,0,1-1.3985-8.7784L484.0859,221.377l-55.49-169.6582L15.9141,186.6953,41.46,264.8a4.5,4.5,0,0,1-8.5547,2.7969l-26.9444-82.38A4.5013,4.5013,0,0,1,8.84,179.54L430.0752,41.7656a4.5,4.5,0,0,1,5.6758,2.8789l58.2881,178.211a4.5011,4.5011,0,0,1-2.8789,5.6767l-129.0215,42.2A4.5057,4.5057,0,0,1,360.7393,270.9561Z"/>
        <path class="f8ee9468-9e96-4f84-b955-8046889c1851" d="M106.6123,246.5654a4.5018,4.5018,0,0,1-4.2764-3.1025L75.8125,162.3691a4.5,4.5,0,0,1,8.5547-2.7968l26.5234,81.0937a4.5024,4.5024,0,0,1-4.2783,5.8994Z"/>
        <path class="f8ee9468-9e96-4f84-b955-8046889c1851" d="M141.6914,197.2793a4.5006,4.5006,0,0,1-1.3975-8.7783L407.19,101.2061a4.5,4.5,0,1,1,2.7969,8.5546l-266.8965,87.295A4.5075,4.5075,0,0,1,141.6914,197.2793Z"/>
        <path class="f8ee9468-9e96-4f84-b955-8046889c1851" d="M150.8574,233.1562a4.5006,4.5006,0,0,1-1.3974-8.7783l106.6425-34.88a4.5,4.5,0,0,1,2.7969,8.5547l-106.6426,34.88A4.5046,4.5046,0,0,1,150.8574,233.1562Z"/>
        <path class="f8ee9468-9e96-4f84-b955-8046889c1851" d="M355.2676,166.2988a4.5006,4.5006,0,0,1-1.3975-8.7783l64.8057-21.1963a4.5,4.5,0,1,1,2.7969,8.5547L356.667,166.0752A4.5055,4.5055,0,0,1,355.2676,166.2988Z"/>
        <path class="f8ee9468-9e96-4f84-b955-8046889c1851" d="M407.918,216.8633a4.5006,4.5006,0,0,1-1.3975-8.7783l33.4981-10.9561a4.5,4.5,0,0,1,2.7968,8.5547l-33.498,10.956A4.5057,4.5057,0,0,1,407.918,216.8633Z"/>
        <path class="f8ee9468-9e96-4f84-b955-8046889c1851" d="M359.0869,232.835a4.5007,4.5007,0,0,1-1.3974-8.7784l33.497-10.956a4.5,4.5,0,1,1,2.7969,8.5547l-33.4971,10.956A4.5048,4.5048,0,0,1,359.0869,232.835Z"/>
      </g>
    </g>
  </g>
</svg>
