<svg id="a2a75835-e92f-4453-b0eb-0c0a515bf2d1" data-name="Construction" xmlns="http://www.w3.org/2000/svg" viewBox="0 0 500 500">
  <defs>
    <style>
      .b6c538e9-38fa-4315-bb81-6de5170c0a9f {
        fill: #0030b3;
      }
    </style>
  </defs>
  <title>icon</title>
  <g>
    <path class="b6c538e9-38fa-4315-bb81-6de5170c0a9f" d="M317,495.5H60a4.5,4.5,0,0,1,0-9H317a4.5,4.5,0,0,1,0,9Z"/>
    <path class="b6c538e9-38fa-4315-bb81-6de5170c0a9f" d="M210.0532,495.5a4.5,4.5,0,0,1-4.5-4.5V88.2979L178.3555,14H158.1978L131,88.2979V491a4.5,4.5,0,0,1-9,0V87.5a4.4955,4.4955,0,0,1,.2744-1.5469l28.5532-78A4.4993,4.4993,0,0,1,155.0532,5H181.5a4.4991,4.4991,0,0,1,4.2256,2.9531l28.5532,78a4.4955,4.4955,0,0,1,.2744,1.5469V491A4.5,4.5,0,0,1,210.0532,495.5Z"/>
    <path class="b6c538e9-38fa-4315-bb81-6de5170c0a9f" d="M489.6807,178.5088H210.0532a4.5,4.5,0,0,1,0-9H482.5537L445.5391,91.7656,210.0576,92h-.0044a4.5,4.5,0,0,1-.0044-9l238.3252-.2373h.0049a4.4992,4.4992,0,0,1,4.0625,2.5654l41.3018,86.7461a4.5,4.5,0,0,1-4.0625,6.4346Z"/>
    <g>
      <path class="b6c538e9-38fa-4315-bb81-6de5170c0a9f" d="M126.5,92H93.5884a4.5,4.5,0,1,1,0-9H126.5a4.5,4.5,0,0,1,0,9Z"/>
      <path class="b6c538e9-38fa-4315-bb81-6de5170c0a9f" d="M126.5,178.5088H93.5884a4.5,4.5,0,1,1,0-9H126.5a4.5,4.5,0,0,1,0,9Z"/>
    </g>
    <path class="b6c538e9-38fa-4315-bb81-6de5170c0a9f" d="M93.5884,192.7427H52.1a4.5,4.5,0,0,1-4.5-4.5V73.2661a4.5,4.5,0,0,1,4.5-4.5H93.5884a4.5,4.5,0,0,1,4.5,4.5V188.2427A4.5,4.5,0,0,1,93.5884,192.7427Zm-36.9883-9H89.0884V77.7661H56.6Z"/>
    <path class="b6c538e9-38fa-4315-bb81-6de5170c0a9f" d="M46.6123,160.83c-7.9492,0-21.729-1.9644-31.1816-14.0679C3.72,131.7671,5.666,105.9175,5.7544,104.8247A4.5,4.5,0,0,1,10.24,100.688H52.1a4.5,4.5,0,0,1,0,9H14.5938c-.0293,7.2764.8364,22.4516,7.93,31.5342,10.3311,13.228,28.0655,10.4165,28.816,10.2915a4.5,4.5,0,0,1,1.5351,8.8681A39.1607,39.1607,0,0,1,46.6123,160.83Z"/>
    <g>
      <path class="b6c538e9-38fa-4315-bb81-6de5170c0a9f" d="M210.0527,495.5a4.4835,4.4835,0,0,1-3.1362-1.2734l-83.5532-81.2237a4.5,4.5,0,1,1,6.2734-6.4531L213.19,487.7734a4.5,4.5,0,0,1-3.1372,7.7266Z"/>
      <path class="b6c538e9-38fa-4315-bb81-6de5170c0a9f" d="M126.5005,495.5a4.5,4.5,0,0,1-3.1372-7.7266L206.9165,406.55a4.5,4.5,0,1,1,6.2734,6.4531l-83.5532,81.2237A4.4833,4.4833,0,0,1,126.5005,495.5Z"/>
    </g>
    <g>
      <path class="b6c538e9-38fa-4315-bb81-6de5170c0a9f" d="M210.0527,415.4619a4.483,4.483,0,0,1-3.1362-1.2734l-83.5532-81.2237a4.5,4.5,0,1,1,6.2734-6.4531L213.19,407.7354a4.5,4.5,0,0,1-3.1372,7.7265Z"/>
      <path class="b6c538e9-38fa-4315-bb81-6de5170c0a9f" d="M126.5005,415.4619a4.5,4.5,0,0,1-3.1372-7.7265l83.5532-81.2237a4.5,4.5,0,1,1,6.2734,6.4531l-83.5532,81.2237A4.4829,4.4829,0,0,1,126.5005,415.4619Z"/>
    </g>
    <g>
      <path class="b6c538e9-38fa-4315-bb81-6de5170c0a9f" d="M210.0527,334.1865a4.483,4.483,0,0,1-3.1362-1.2734L123.3633,251.69a4.5,4.5,0,1,1,6.2734-6.4531L213.19,326.46a4.5,4.5,0,0,1-3.1372,7.7265Z"/>
      <path class="b6c538e9-38fa-4315-bb81-6de5170c0a9f" d="M126.5005,334.1865a4.5,4.5,0,0,1-3.1372-7.7265l83.5532-81.2227A4.5,4.5,0,1,1,213.19,251.69l-83.5532,81.2227A4.4829,4.4829,0,0,1,126.5005,334.1865Z"/>
    </g>
    <g>
      <path class="b6c538e9-38fa-4315-bb81-6de5170c0a9f" d="M210.0527,252.9121a4.483,4.483,0,0,1-3.1362-1.2734l-83.5532-81.2232a4.5,4.5,0,1,1,6.2734-6.4531L213.19,245.1855a4.5,4.5,0,0,1-3.1372,7.7266Z"/>
      <path class="b6c538e9-38fa-4315-bb81-6de5170c0a9f" d="M126.5005,252.9121a4.5,4.5,0,0,1-3.1372-7.7266l83.5532-81.2231a4.5,4.5,0,1,1,6.2734,6.4531l-83.5532,81.2232A4.4829,4.4829,0,0,1,126.5005,252.9121Z"/>
    </g>
    <g>
      <path class="b6c538e9-38fa-4315-bb81-6de5170c0a9f" d="M210.0527,172.9863a4.4852,4.4852,0,0,1-3.1362-1.2734L123.3633,90.4893a4.5,4.5,0,1,1,6.2734-6.4532L213.19,165.26a4.5,4.5,0,0,1-3.1372,7.7265Z"/>
      <path class="b6c538e9-38fa-4315-bb81-6de5170c0a9f" d="M126.5005,172.9863a4.5,4.5,0,0,1-3.1372-7.7265l83.5532-81.2237a4.5,4.5,0,0,1,6.2734,6.4532l-83.5532,81.2236A4.485,4.485,0,0,1,126.5005,172.9863Z"/>
    </g>
    <g>
      <path class="b6c538e9-38fa-4315-bb81-6de5170c0a9f" d="M210.0508,178.5088a4.5,4.5,0,0,1-3.4746-7.3565l71.1269-86.5795a4.5,4.5,0,0,1,6.9551,5.7128l-71.1279,86.58A4.4911,4.4911,0,0,1,210.0508,178.5088Z"/>
      <path class="b6c538e9-38fa-4315-bb81-6de5170c0a9f" d="M281.1836,178.5088a4.4931,4.4931,0,0,1-3.4805-1.6436l-71.1269-86.58a4.5,4.5,0,1,1,6.9541-5.7128l71.1279,86.58a4.5,4.5,0,0,1-3.4746,7.3565Z"/>
    </g>
    <g>
      <path class="b6c538e9-38fa-4315-bb81-6de5170c0a9f" d="M281.8975,178.5088a4.5,4.5,0,0,1-3.4746-7.3565L349.55,84.5728a4.5,4.5,0,0,1,6.9551,5.7128l-71.127,86.58A4.4914,4.4914,0,0,1,281.8975,178.5088Z"/>
      <path class="b6c538e9-38fa-4315-bb81-6de5170c0a9f" d="M353.03,178.5088a4.4929,4.4929,0,0,1-3.4805-1.6436l-71.1269-86.58a4.5,4.5,0,0,1,6.955-5.7128l71.127,86.58a4.5,4.5,0,0,1-3.4746,7.3565Z"/>
    </g>
    <path class="b6c538e9-38fa-4315-bb81-6de5170c0a9f" d="M353.0244,178.5088a4.5,4.5,0,0,1-3.4746-7.3565l71.1279-86.5795a4.5,4.5,0,0,1,6.9551,5.7128l-71.1279,86.58A4.4916,4.4916,0,0,1,353.0244,178.5088Z"/>
    <path class="b6c538e9-38fa-4315-bb81-6de5170c0a9f" d="M424.1523,178.5088a4.5,4.5,0,0,1-3.4746-7.3565l41.4834-50.4956a4.5,4.5,0,0,1,6.9551,5.7129l-41.4834,50.4956A4.4915,4.4915,0,0,1,424.1523,178.5088Z"/>
    <path class="b6c538e9-38fa-4315-bb81-6de5170c0a9f" d="M424.1582,178.5088a4.4931,4.4931,0,0,1-3.4805-1.6436L349.55,90.2856a4.5,4.5,0,0,1,6.9551-5.7128l71.1279,86.58a4.5,4.5,0,0,1-3.4746,7.3565Z"/>
    <path class="b6c538e9-38fa-4315-bb81-6de5170c0a9f" d="M434.2051,328.4141H399.7129a4.4987,4.4987,0,0,1-4.3486-3.3438c-.1319-.4932-3.1475-12.2822,2.5576-29.6279,4.2461-12.9121,11.001-19.6221,14.5371-22.4141V174.0088a4.5,4.5,0,0,1,9,0v99.02c3.5361,2.792,10.29,9.501,14.5371,22.4131,5.7051,17.3457,2.6894,29.1347,2.5576,29.6279A4.4987,4.4987,0,0,1,434.2051,328.4141Zm-30.6113-9h26.7324a54.2093,54.2093,0,0,0-2.8789-21.1592c-3.1748-9.6524-7.7793-14.8809-10.4912-17.292-2.6973,2.3994-7.3077,7.6289-10.4854,17.292A54.17,54.17,0,0,0,403.5938,319.4141Z"/>
    <path class="b6c538e9-38fa-4315-bb81-6de5170c0a9f" d="M416.959,404.6611a31.2041,31.2041,0,0,1-30.1631-39.1152,4.5,4.5,0,0,1,8.7051,2.2832,22.1861,22.1861,0,1,0,21.458-16.5322,4.5,4.5,0,0,1-4.5-4.5V323.9141a4.5,4.5,0,0,1,9,0v18.707a31.1833,31.1833,0,0,1-4.5,62.04Z"/>
  </g>
</svg>
