<svg xmlns="http://www.w3.org/2000/svg" viewBox="0 0 500 500">
  <defs>
    <style>
      .b55327e1-2e39-4150-adfc-c08177732a1d {
        fill: #0030b3;
      }
    </style>
  </defs>
  <title>icon</title>
  <g id="f4b54a06-0b33-4f9b-9959-ad7fd610ce79" data-name="Finance">
    <g>
      <path class="b55327e1-2e39-4150-adfc-c08177732a1d" d="M360.0166,485.7441H312.623a4.4992,4.4992,0,0,1-4.3281-3.2685L300.6523,455.61a244.0311,244.0311,0,0,1-82.6357-1.1172l-7.0342,27.8525a4.5011,4.5011,0,0,1-4.3633,3.3984H159.6777a4.4992,4.4992,0,0,1-4.3857-3.4941l-13.0576-56.9277c-23.0664-14.4629-42.1992-33.1778-55.4073-54.2159-14.2421-22.6855-21.4638-47.1992-21.4638-72.8613,0-54.7685,33.8154-105.1889,90.457-134.8745a4.5,4.5,0,0,1,4.1777,7.9717c-53.622,28.103-85.6347,75.5434-85.6347,126.9028,0,23.9424,6.7578,46.8467,20.0869,68.0762,12.7822,20.3594,31.4912,38.4551,54.1045,52.33a4.4993,4.4993,0,0,1,2.0322,2.83l12.6758,55.2627h39.8516l7.2216-28.5927a4.5008,4.5008,0,0,1,5.2745-3.3057,234.5948,234.5948,0,0,0,87.4853,1.2285,4.5045,4.5045,0,0,1,5.1113,3.2l7.8145,27.47h40.3857l11.41-51.3007a4.5015,4.5015,0,0,1,2.1914-2.9483c30.5117-17.1074,53.8642-40.7851,67.5342-68.4726a4.5066,4.5066,0,0,1,2.1259-2.083l45.0967-21.1231-1.4482-45.84-34.5625-16.5118a4.5037,4.5037,0,0,1-2.4014-2.872c-5.8887-21.5171-17.3379-41.3579-34.0283-58.9722a4.5,4.5,0,0,1,6.5332-6.19c17.2061,18.1587,29.1807,38.6006,35.6143,60.7925l35.1953,16.8134a4.5022,4.5022,0,0,1,2.5586,3.919l1.6279,51.5381a4.5019,4.5019,0,0,1-2.5889,4.2168l-46.3633,21.7168c-14.2949,28.1777-38.0029,52.2949-68.7334,69.9209l-11.76,52.873A4.5007,4.5007,0,0,1,360.0166,485.7441Z"/>
      <path class="b55327e1-2e39-4150-adfc-c08177732a1d" d="M341.2939,160.457a4.495,4.495,0,0,1-1.5341-.271,218.1969,218.1969,0,0,0-24.5743-7.29,4.5,4.5,0,0,1,2.0508-8.7637,227.337,227.337,0,0,1,25.5918,7.5928,4.5009,4.5009,0,0,1-1.5342,8.7319Z"/>
      <path class="b55327e1-2e39-4150-adfc-c08177732a1d" d="M14.6855,312.6523a33.2394,33.2394,0,0,1-4.789-.2929,4.5,4.5,0,0,1,1.4805-8.877c1.1162.1768,23.582,3.4131,36.2441-19.84-2.9609-.6016-5.9688-1.3037-8.8623-2.12-15.4717-4.3633-20.9824-11.3545-20.3311-25.7959.22-4.878,4.128-9.2417,10.7227-11.9727,8.0547-3.335,20.1035-3.8374,27.5244,2.9463,4.62,4.2227,9.05,12.7031,3.918,29.124-.0869.2793-.1748.5547-.2637.83,6.2168.8584,10.7676,1.2021,10.8535,1.208a4.5,4.5,0,0,1-.6582,8.9766c-.4082-.03-6.1367-.461-13.6172-1.5752C45.17,309.7148,24.1143,312.6523,14.6855,312.6523Zm26.6719-62.3217a23.4868,23.4868,0,0,0-8.7636,1.7387c-3.8067,1.5762-5.1475,3.45-5.1758,4.0635-.4287,9.5127,1.5039,13.2637,13.7841,16.7276,3.2725.9228,6.7442,1.6943,10.1231,2.333.2334-.67.459-1.3526.6777-2.0538,2.0528-6.57,3.4766-15.3388-1.4-19.7968C48.2783,251.2188,44.8838,250.3306,41.3574,250.3306Z"/>
      <path class="b55327e1-2e39-4150-adfc-c08177732a1d" d="M267.9355,200.8428a4.5006,4.5006,0,0,1-1.7753-8.6367,88.0188,88.0188,0,1,0-70.09-.3291,4.5,4.5,0,1,1-3.625,8.2373,97.0192,97.0192,0,1,1,77.2617.3632A4.4826,4.4826,0,0,1,267.9355,200.8428Z"/>
      <path class="b55327e1-2e39-4150-adfc-c08177732a1d" d="M290.9131,208.2954a4.4839,4.4839,0,0,1-1.9424-.4429c-.23-.11-23.8418-11.1767-57.4766-11.1767-33.91,0-64.6084,11.2246-64.915,11.3379a4.5,4.5,0,0,1-3.1309-8.438c1.31-.4859,32.4639-11.9,68.0459-11.9,35.794,0,60.34,11.5683,61.3672,12.06a4.5009,4.5009,0,0,1-1.9482,8.5591Z"/>
      <path class="b55327e1-2e39-4150-adfc-c08177732a1d" d="M378.3438,246.0376c-15.1553,0-32.1963-6.8091-40.625-18.2734-.0342-.0479-.0684-.0962-.1016-.1451-24.1953-35.7841-10.169-64.644.6279-74.9047a4.4362,4.4362,0,0,1,.5059-.4156c3.7929-2.6743,53.8515-25.9624,74.6562-20.1728a4.4957,4.4957,0,0,1,1.6221.8354c9.9473,8.0415,9.24,32.02,6.9941,56.7329-2.1767,23.9566-9.9775,40.9869-23.1855,50.6177C393.4678,244.2271,386.1553,246.0376,378.3438,246.0376Zm-33.3233-23.5361C353.97,234.5635,381,242.1792,393.5352,233.04c11.0234-8.0376,17.5927-22.8956,19.5253-44.16,2.4678-27.1616,1.44-43.4014-3.0556-48.3194-16.3506-3.2978-59.8672,15.3443-65.8145,18.9356C341.5879,162.22,320.5117,186.1738,345.0205,222.5015Z"/>
      <path class="b55327e1-2e39-4150-adfc-c08177732a1d" d="M255.2379,138.7939q-6.4219,6.0987-18.6171,7.3929v12.0873h-8.85v-11.98a60.4973,60.4973,0,0,1-15.11-2.9141,32.9139,32.9139,0,0,1-11.3324-6.0437l4.8567-10.9a35.7749,35.7749,0,0,0,9.7136,5.45,43.1679,43.1679,0,0,0,11.8718,2.7522V113.0534a79.2985,79.2985,0,0,1-12.789-4.0473,22.1511,22.1511,0,0,1-8.5808-6.4757q-3.4552-4.2621-3.4534-11.2779a19.9421,19.9421,0,0,1,6.3674-14.8941q6.368-6.1514,18.4558-7.3388V56.824h8.85v11.98a50.603,50.603,0,0,1,11.8186,2.051,38.8875,38.8875,0,0,1,10.09,4.5325L254.1052,86.288A44.9253,44.9253,0,0,0,236.6208,80.46v21.8009a83.1763,83.1763,0,0,1,12.8973,3.9932,22.1692,22.1692,0,0,1,8.6339,6.4215q3.5066,4.2651,3.5075,11.2784A19.6959,19.6959,0,0,1,255.2379,138.7939Zm-35.5612-42.469a24.3137,24.3137,0,0,0,8.0946,3.6694V80.7837q-5.5048.8652-8.2029,3.4533a8.4813,8.4813,0,0,0-2.6976,6.368A6.859,6.859,0,0,0,219.6767,96.3249Zm25.4166,34.7523a7.9516,7.9516,0,0,0,2.7517-6.152,7.0218,7.0218,0,0,0-2.9141-5.8817,24.9922,24.9922,0,0,0-8.31-3.7236v19.1029Q242.3406,133.56,245.0933,131.0772Z"/>
      <path class="b55327e1-2e39-4150-adfc-c08177732a1d" d="M396.1865,296.0322a25.0973,25.0973,0,0,1-25.0683-25.0683,4.5,4.5,0,0,1,9,0,16.0679,16.0679,0,1,0,32.1357,0,4.5,4.5,0,0,1,9,0A25.0965,25.0965,0,0,1,396.1865,296.0322Z"/>
    </g>
  </g>
</svg>
