<svg xmlns="http://www.w3.org/2000/svg" viewBox="0 0 500 500">
  <title>icon</title>
  <g id="a4445719-34d0-4f8c-a201-cb0da85ab830" data-name="Healthcare">
    <g>
      <path class="a800ce5f-d91a-4b23-9027-7faa1d3d69c4" d="M28.2139,191.8555a4.5,4.5,0,0,1-4.5-4.5V73.31c.0185-14.0782,7.0869-40.6914,33.71-40.6914a4.5,4.5,0,0,1,0,9c-10.1513,0-17.1142,4.9306-21.2842,15.0742a50.2472,50.2472,0,0,0-3.4257,16.6308V187.3555A4.5,4.5,0,0,1,28.2139,191.8555Z"/>
      <path class="a800ce5f-d91a-4b23-9027-7faa1d3d69c4" d="M75.2461,59.5166A22.3985,22.3985,0,1,1,97.6445,37.1182,22.4237,22.4237,0,0,1,75.2461,59.5166Zm0-35.7969A13.3985,13.3985,0,1,0,88.6445,37.1182,13.4139,13.4139,0,0,0,75.2461,23.72Z"/>
      <path class="a800ce5f-d91a-4b23-9027-7faa1d3d69c4" d="M124.7256,307.0205h-.26a142.4069,142.4069,0,0,1-41.7578-6.4424,117.6623,117.6623,0,0,1-28.02-12.5732c-15.959-10.0576-29.3213-25.2305-38.6426-43.88-8.9463-17.9-13.4892-38.12-12.7929-56.9355a4.5,4.5,0,0,1,4.497-4.3335l41.3584,0a4.5,4.5,0,0,1,4.4971,4.6508c-.5752,17.1626,1.6816,37.4844,22.7764,58.0791a65.47,65.47,0,0,0,17.19,11.9009c26.6914,12.9746,58.4531,8.1924,79.0332-11.9013,21.0947-20.5943,23.3516-40.9161,22.7764-58.0782a4.5,4.5,0,0,1,4.497-4.6508h41.3584a4.5,4.5,0,0,1,4.4971,4.3335c.6963,18.8154-3.8467,39.0356-12.793,56.9355-9.3213,18.6494-22.6836,33.8223-38.6425,43.88a110.926,110.926,0,0,1-19.2305,9.5342A139.6151,139.6151,0,0,1,124.7256,307.0205ZM12.1836,191.856c.2773,34.9726,19.3027,70.89,47.3027,88.5336a108.6633,108.6633,0,0,0,25.877,11.5889,133.422,133.422,0,0,0,39.12,6.042h.2412a130.6605,130.6605,0,0,0,47.1084-8.88,101.8871,101.8871,0,0,0,17.666-8.75c28-17.6445,47.0254-53.562,47.3028-88.5346H204.459c.0195,18.0971-3.8545,38.9711-25.5674,60.1694-23.292,22.7373-59.16,28.1855-89.2559,13.5547a74.4183,74.4183,0,0,1-19.5419-13.5547c-21.7129-21.1983-25.587-42.0723-25.5674-60.17Z"/>
      <path class="a800ce5f-d91a-4b23-9027-7faa1d3d69c4" d="M220.7715,191.856a4.5,4.5,0,0,1-4.5-4.5V73.31a50.2524,50.2524,0,0,0-3.4258-16.6172c-4.17-10.1436-11.1328-15.0742-21.2842-15.0742a4.5,4.5,0,0,1,0-9c26.6231,0,33.6914,26.6132,33.71,40.6855V187.356A4.5,4.5,0,0,1,220.7715,191.856Z"/>
      <path class="a800ce5f-d91a-4b23-9027-7faa1d3d69c4" d="M173.7393,59.5166a22.3985,22.3985,0,1,1,22.3984-22.3984A22.4237,22.4237,0,0,1,173.7393,59.5166Zm0-35.7969a13.3985,13.3985,0,1,0,13.3984,13.3985A13.414,13.414,0,0,0,173.7393,23.72Z"/>
      <path class="a800ce5f-d91a-4b23-9027-7faa1d3d69c4" d="M133.5156,358.832H115.47a17.9875,17.9875,0,0,1-13.2334-5.2539c-7.07-7.09-7.1181-18.8545-7.1172-19.3515V300.1914a4.5,4.5,0,0,1,9,0v34.0479c.0059,1.5947.37,15.5927,11.3506,15.5927h18.0459c10.9805,0,11.3448-13.998,11.3506-15.5937V300.1914a4.5,4.5,0,0,1,9,0v34.0479c.001.4843-.0469,12.249-7.1172,19.3388A17.9874,17.9874,0,0,1,133.5156,358.832Z"/>
      <path class="a800ce5f-d91a-4b23-9027-7faa1d3d69c4" d="M225.1445,485.0537c-44.5195,0-70.5283-24.63-84.5068-45.293-15.7-23.207-20.6445-47.4336-20.6445-52.22V354.332a4.5,4.5,0,0,1,9,0v33.209c0,3.8565,4.9853,26.3145,19.1,47.1768,18.5556,27.4287,44.48,41.3359,77.0517,41.3359,32.6729,0,57.1084-13.3086,72.626-39.5557,12.2783-20.7666,14.9668-43.2363,14.9668-50.1425V236.8438c0-.7017-.0039-1.48-.0088-2.3282-.09-15.9858-.3008-53.4214,22.1758-76.0239,11.4834-11.5479,27.2285-17.4033,46.7978-17.4033,17.793,0,32.3155,5.9731,43.1622,17.7544,25.2128,27.3823,21.4843,76.3027,21.3134,78.3716a4.5,4.5,0,1,1-8.9687-.7413c.0381-.4658,3.5556-47.1015-18.9844-71.5542-9.07-9.8408-21.3584-14.83-36.5225-14.83-17.0859,0-30.6845,4.9624-40.416,14.749-19.8369,19.9487-19.6416,54.7617-19.5586,69.6279.0049.8662.01,1.6617.01,2.3785V386.3555c0,7.5908-2.9141,32.2187-16.22,54.7236C293.6572,461.14,270.085,485.0537,225.1445,485.0537Z"/>
      <path class="a800ce5f-d91a-4b23-9027-7faa1d3d69c4" d="M441.6934,341.6162a54.6475,54.6475,0,1,1,54.6474-54.6474A54.7092,54.7092,0,0,1,441.6934,341.6162Zm0-100.2949a45.6475,45.6475,0,1,0,45.6474,45.6475A45.6993,45.6993,0,0,0,441.6934,241.3213Z"/>
      <path class="a800ce5f-d91a-4b23-9027-7faa1d3d69c4" d="M441.6934,319.1113a32.1421,32.1421,0,1,1,32.1425-32.1425A32.1785,32.1785,0,0,1,441.6934,319.1113Zm0-55.2842a23.1421,23.1421,0,1,0,23.1425,23.1417A23.1673,23.1673,0,0,0,441.6934,263.8271Z"/>
    </g>
  </g>
</svg>
