<svg xmlns="http://www.w3.org/2000/svg" viewBox="0 0 500 500">
  <title>icon</title>
  <g id="ef4ee3ff-cd55-4d1e-b83e-9632f2cf0d3b" data-name="Law">
    <g>
      <path class="b64e1d27-7363-4b1f-9073-2814eb02e172" d="M250.1953,64.3735a29.655,29.655,0,1,1,29.6553-29.6547A29.689,29.689,0,0,1,250.1953,64.3735Zm0-50.31a20.655,20.655,0,1,0,20.6553,20.6553A20.6787,20.6787,0,0,0,250.1953,14.0635Z"/>
      <path class="b64e1d27-7363-4b1f-9073-2814eb02e172" d="M232.5332,312.7861a4.5,4.5,0,0,1-4.5-4.5V52.3809a4.5,4.5,0,1,1,9,0V308.2861A4.5,4.5,0,0,1,232.5332,312.7861Z"/>
      <path class="b64e1d27-7363-4b1f-9073-2814eb02e172" d="M86.8037,125.2539a12.9907,12.9907,0,0,1-8.7148-3.4575C75.002,118.895,73.4365,114.6,73.4365,109.03h.002c-.0049-1.97.8115-11.503,16.792-13.4449C103.3594,93.9912,230.48,71.89,231.7617,71.6665a4.5,4.5,0,0,1,1.543,8.8672c-5.2461.9121-128.6318,22.3638-141.9883,23.9863-6.582.7993-8.6465,3.08-8.8662,4.293.0186.0932-.0137-.0308-.0137.2173,0,2.8867.6045,5.0112,1.749,6.1435a3.93,3.93,0,0,0,2.5411,1.08,1.6626,1.6626,0,0,1,.2275-.0029H232.5332a4.5,4.5,0,0,1,0,9H87.0273C86.9639,125.2524,86.8887,125.2539,86.8037,125.2539Zm-4.38-16.5644Z"/>
      <path class="b64e1d27-7363-4b1f-9073-2814eb02e172" d="M96.209,400.4131h-.085l-.1406-4.5v4.5c-15.7842,0-35.4189.001-59.2646-13.9375-31.0157-15.59-31.375-43.5186-31.375-44.7012a4.4924,4.4924,0,0,1,.4267-1.9121l85.7822-182.72.001-36.3916a4.5,4.5,0,0,1,4.5-4.5h0a4.5,4.5,0,0,1,4.5,4.5l-.001,36.39,85.7832,182.7217a4.491,4.491,0,0,1,.4268,1.9121c0,1.1826-.3594,29.1113-31.376,44.7012C131.584,400.3887,111.9775,400.4131,96.209,400.4131ZM14.3867,342.6865c.3252,4.5039,3.085,24.1035,26.4922,35.8076.0889.044.1768.0918.2627.1426,21.7949,12.7764,39.3516,12.7764,54.8418,12.7764h.2285c15.4678,0,32.9961-.0235,54.752-12.7764.0859-.0508.1738-.0986.2627-.1435,23.3857-11.6924,26.163-31.2657,26.4922-35.8086l-81.6661-173.95Z"/>
      <path class="b64e1d27-7363-4b1f-9073-2814eb02e172" d="M182.2627,346.2744H9.8438a4.5,4.5,0,1,1,0-9H182.2627a4.5,4.5,0,0,1,0,9Z"/>
      <path class="b64e1d27-7363-4b1f-9073-2814eb02e172" d="M343.9043,492.374H156.0752a4.5,4.5,0,0,1-4.5-4.5v-17.17a4.5029,4.5029,0,0,1,.248-1.4727c.1739-.5019,4.3809-12.333,14.8711-15.1523,8.1143-2.1807,55.08-17.0947,55.5537-17.2451a4.5088,4.5088,0,0,1,1.3624-.211h52.7587a4.5077,4.5077,0,0,1,1.3623.211c.4737.15,47.4385,15.0644,55.5547,17.2451,10.4893,2.8193,14.6963,14.65,14.87,15.1523a4.5,4.5,0,0,1,.2481,1.4727v17.17A4.5,4.5,0,0,1,343.9043,492.374Zm-93.9248-9h89.4248V471.5635c-.8057-1.876-3.5811-7.4834-8.4541-8.793-7.8691-2.1143-49.2656-15.2393-55.2783-17.1475H224.3076c-6.0127,1.9082-47.4082,15.0332-55.2773,17.1475-4.8662,1.3076-7.6416,6.9014-8.4551,8.7949V483.374Z"/>
      <path class="b64e1d27-7363-4b1f-9073-2814eb02e172" d="M276.3691,445.623a4.5,4.5,0,0,1-4.5-4.5V319.5967c-.06-.7246-.6718-6.8106-4.4228-6.8106H232.5332c-3.7314,0-4.3564,6.0215-4.4228,6.8174v121.52a4.5,4.5,0,0,1-9,0V319.4482c0-.0732.0019-.1455.0048-.2187.2608-5.3418,3.3994-15.4434,13.418-15.4434h34.9131c10.0185,0,13.1572,10.1016,13.418,15.4434.0029.0732.0048.1455.0048.2187V441.123A4.5,4.5,0,0,1,276.3691,445.623Z"/>
      <path class="b64e1d27-7363-4b1f-9073-2814eb02e172" d="M267.4463,312.7861a4.5,4.5,0,0,1-4.5-4.5V52.3809a4.5,4.5,0,0,1,9,0V308.2861A4.5,4.5,0,0,1,267.4463,312.7861Z"/>
      <path class="b64e1d27-7363-4b1f-9073-2814eb02e172" d="M413.1758,125.2539c-.085,0-.16-.0015-.2237-.0029H267.4463a4.5,4.5,0,0,1,0-9H413.0254a1.391,1.391,0,0,1,.2275.0029,3.9311,3.9311,0,0,0,2.541-1.08c1.1446-1.1323,1.7491-3.2568,1.7491-6.1435,0-.2481-.0323-.1241-.0137-.2173-.22-1.2139-2.2842-3.4937-8.8662-4.293-13.3565-1.6225-136.7422-23.0742-141.9883-23.9863a4.5,4.5,0,0,1,1.543-8.8672C269.5,71.89,396.62,93.9912,409.749,95.5854c15.98,1.9419,16.7969,11.4747,16.792,13.4449h.002c0,5.5693-1.5655,9.8647-4.6524,12.7661A12.9921,12.9921,0,0,1,413.1758,125.2539Zm4.38-16.5644Z"/>
      <path class="b64e1d27-7363-4b1f-9073-2814eb02e172" d="M404.082,400.4131h-.0859l-.1406-4.5v4.5c-15.7832,0-35.417.001-59.2627-13.9375-31.0166-15.59-31.376-43.5186-31.376-44.7012a4.491,4.491,0,0,1,.4268-1.9121l85.7832-182.7217-.001-36.39a4.5,4.5,0,1,1,9,0l.001,36.3916,85.7832,182.72a4.4924,4.4924,0,0,1,.4267,1.9121c0,1.1826-.3594,29.1113-31.376,44.7012C439.458,400.3887,419.8506,400.4131,404.082,400.4131ZM322.26,342.6865c.3252,4.5039,3.0849,24.1035,26.4931,35.8067.0889.0449.1768.0927.2627.1435,21.7949,12.7764,39.3506,12.7764,54.84,12.7764h.2285c15.4687,0,32.998-.0235,54.7539-12.7764.0859-.0508.1738-.0986.2627-.1435,23.3857-11.6924,26.1631-31.2657,26.4922-35.8086l-81.666-173.95Z"/>
      <path class="b64e1d27-7363-4b1f-9073-2814eb02e172" d="M490.1367,346.2744h-172.42a4.5,4.5,0,1,1,0-9h172.42a4.5,4.5,0,0,1,0,9Z"/>
    </g>
  </g>
</svg>
