<svg xmlns="http://www.w3.org/2000/svg" viewBox="0 0 500 500">
  <defs>
    <style>
      .b3ca4d71-dc8b-464b-b7b0-95c339ac73e1 {
        fill: #0030b3;
      }
    </style>
  </defs>
  <title>icon</title>
  <g id="ae7550d8-0b0d-4999-bfce-eb7c0dc89565" data-name="Technology">
    <g>
      <path class="b3ca4d71-dc8b-464b-b7b0-95c339ac73e1" d="M407.5391,412.0391H92.46a4.5,4.5,0,0,1-4.5-4.5V92.4609a4.5,4.5,0,0,1,4.5-4.5H407.5391a4.5,4.5,0,0,1,4.5,4.5V407.5391A4.5,4.5,0,0,1,407.5391,412.0391Zm-310.5787-9H403.0391V96.9609H96.96Z"/>
      <path class="b3ca4d71-dc8b-464b-b7b0-95c339ac73e1" d="M427.2363,445.0381H72.7642a4.4959,4.4959,0,0,1-3.1817-1.3184L56.28,430.418a4.498,4.498,0,0,1-1.3184-3.1817V72.7637A4.498,4.498,0,0,1,56.28,69.582L69.5825,56.28a4.4959,4.4959,0,0,1,3.1817-1.3184H427.2363A4.4959,4.4959,0,0,1,430.418,56.28L443.72,69.582a4.4959,4.4959,0,0,1,1.3184,3.1817V427.2363a4.4959,4.4959,0,0,1-1.3184,3.1817L430.418,443.72A4.4959,4.4959,0,0,1,427.2363,445.0381Zm-352.6084-9H425.3721l10.666-10.666V74.6279l-10.666-10.666H74.6279L63.9614,74.6279V425.3721Z"/>
      <g>
        <g>
          <path class="b3ca4d71-dc8b-464b-b7b0-95c339ac73e1" d="M59.4614,200.7275H22.4668c-.104,0-.208-.0039-.312-.0107C21.9692,200.7041,3.5757,199.1924,3.5757,179s18.3935-21.7041,18.5791-21.7168c.104-.0068.208-.0107.312-.0107H59.4614a4.5,4.5,0,0,1,4.5,4.5v34.455A4.5,4.5,0,0,1,59.4614,200.7275Zm-36.7856-9H54.9614v-25.455H22.6758c-1.9942.21-10.1,1.7451-10.1,12.7275S20.6816,191.5176,22.6758,191.7275Z"/>
          <path class="b3ca4d71-dc8b-464b-b7b0-95c339ac73e1" d="M59.4614,129.7275H22.4668c-.104,0-.208-.0039-.312-.0107C21.9692,129.7041,3.5757,128.1924,3.5757,108S21.9692,86.2959,22.1548,86.2832c.104-.0068.208-.0107.312-.0107H59.4614a4.5,4.5,0,0,1,4.5,4.5v34.455A4.5,4.5,0,0,1,59.4614,129.7275Zm-36.7856-9H54.9614V95.2725H22.6758c-1.9942.21-10.1,1.7451-10.1,12.7275S20.6816,120.5176,22.6758,120.7275Z"/>
          <path class="b3ca4d71-dc8b-464b-b7b0-95c339ac73e1" d="M59.4614,271.7275H22.4668c-.104,0-.208-.0039-.312-.0107C21.9692,271.7041,3.5757,270.1924,3.5757,250s18.3935-21.7041,18.5791-21.7168c.104-.0068.208-.0107.312-.0107H59.4614a4.5,4.5,0,0,1,4.5,4.5v34.455A4.5,4.5,0,0,1,59.4614,271.7275Zm-36.7856-9H54.9614v-25.455H22.6758c-1.9942.21-10.1,1.7451-10.1,12.7275S20.6816,262.5176,22.6758,262.7275Z"/>
          <path class="b3ca4d71-dc8b-464b-b7b0-95c339ac73e1" d="M59.4614,342.7275H22.4668c-.104,0-.208-.0039-.312-.0107C21.9692,342.7041,3.5757,341.1924,3.5757,321s18.3935-21.7041,18.5791-21.7168c.104-.0068.208-.0107.312-.0107H59.4614a4.5,4.5,0,0,1,4.5,4.5v34.455A4.5,4.5,0,0,1,59.4614,342.7275Zm-36.7856-9H54.9614v-25.455H22.6758c-1.9942.21-10.1,1.7451-10.1,12.7275S20.6816,333.5176,22.6758,333.7275Z"/>
          <path class="b3ca4d71-dc8b-464b-b7b0-95c339ac73e1" d="M59.4614,413.7275H22.4668c-.104,0-.208-.0039-.312-.0107C21.9692,413.7041,3.5757,412.1924,3.5757,392s18.3935-21.7041,18.5791-21.7168c.104-.0068.208-.0107.312-.0107H59.4614a4.5,4.5,0,0,1,4.5,4.5v34.455A4.5,4.5,0,0,1,59.4614,413.7275Zm-36.7856-9H54.9614v-25.455H22.6758c-1.9942.21-10.1,1.7451-10.1,12.7275S20.6816,404.5176,22.6758,404.7275Z"/>
        </g>
        <g>
          <path class="b3ca4d71-dc8b-464b-b7b0-95c339ac73e1" d="M477.5332,342.7275H440.5381a4.5,4.5,0,0,1-4.5-4.5v-34.455a4.5,4.5,0,0,1,4.5-4.5h36.9951c.1045,0,.208.0039.3115.0107.1865.0127,18.5791,1.5244,18.5791,21.7168s-18.3926,21.7041-18.5791,21.7168C477.7412,342.7236,477.6377,342.7275,477.5332,342.7275Zm-32.4951-9h32.2861c1.9942-.21,10.1-1.7451,10.1-12.7275s-8.1054-12.5176-10.1-12.7275H445.0381Z"/>
          <path class="b3ca4d71-dc8b-464b-b7b0-95c339ac73e1" d="M477.5332,413.7275H440.5381a4.5,4.5,0,0,1-4.5-4.5v-34.455a4.5,4.5,0,0,1,4.5-4.5h36.9951c.1045,0,.208.0039.3115.0107.1865.0127,18.5791,1.5244,18.5791,21.7168s-18.3926,21.7041-18.5791,21.7168C477.7412,413.7236,477.6377,413.7275,477.5332,413.7275Zm-32.4951-9h32.2861c1.9942-.21,10.1-1.7451,10.1-12.7275s-8.1054-12.5176-10.1-12.7275H445.0381Z"/>
          <path class="b3ca4d71-dc8b-464b-b7b0-95c339ac73e1" d="M477.5332,271.7275H440.5381a4.5,4.5,0,0,1-4.5-4.5v-34.455a4.5,4.5,0,0,1,4.5-4.5h36.9951c.1045,0,.208.0039.3115.0107.1865.0127,18.5791,1.5244,18.5791,21.7168s-18.3926,21.7041-18.5791,21.7168C477.7412,271.7236,477.6377,271.7275,477.5332,271.7275Zm-32.4951-9h32.2861c1.9942-.21,10.1-1.7451,10.1-12.7275s-8.1054-12.5176-10.1-12.7275H445.0381Z"/>
          <path class="b3ca4d71-dc8b-464b-b7b0-95c339ac73e1" d="M477.5332,200.7275H440.5381a4.5,4.5,0,0,1-4.5-4.5v-34.455a4.5,4.5,0,0,1,4.5-4.5h36.9951c.1045,0,.208.0039.3115.0107.1865.0127,18.5791,1.5244,18.5791,21.7168s-18.3926,21.7041-18.5791,21.7168C477.7412,200.7236,477.6377,200.7275,477.5332,200.7275Zm-32.4951-9h32.2861c1.9942-.21,10.1-1.7451,10.1-12.7275s-8.1054-12.5176-10.1-12.7275H445.0381Z"/>
          <path class="b3ca4d71-dc8b-464b-b7b0-95c339ac73e1" d="M477.5332,129.7275H440.5381a4.5,4.5,0,0,1-4.5-4.5V90.7725a4.5,4.5,0,0,1,4.5-4.5h36.9951c.1045,0,.208.0039.3115.0107.1865.0127,18.5791,1.5244,18.5791,21.7168s-18.3926,21.7041-18.5791,21.7168C477.7412,129.7236,477.6377,129.7275,477.5332,129.7275Zm-32.4951-9h32.2861c1.9942-.21,10.1-1.7451,10.1-12.7275s-8.1054-12.5176-10.1-12.7275H445.0381Z"/>
        </g>
      </g>
      <g>
        <g>
          <path class="b3ca4d71-dc8b-464b-b7b0-95c339ac73e1" d="M179,496.4238c-20.1914,0-21.7031-18.3926-21.7163-18.5791-.0073-.1035-.0108-.207-.0108-.3115V440.5381a4.5,4.5,0,0,1,4.5-4.5h34.4542a4.5,4.5,0,0,1,4.5,4.5v36.9951c0,.1045-.0035.208-.0108.3115C200.7031,478.0312,199.1914,496.4238,179,496.4238Zm-12.7271-19.1c.21,1.9942,1.7452,10.1,12.7271,10.1s12.5166-8.1054,12.7271-10.1V445.0381H166.2729Zm-4.5.209h0Z"/>
          <path class="b3ca4d71-dc8b-464b-b7b0-95c339ac73e1" d="M108,496.4238c-20.1914,0-21.7031-18.3926-21.7163-18.5791-.0073-.1035-.0108-.207-.0108-.3115V440.5381a4.5,4.5,0,0,1,4.5-4.5h34.4542a4.5,4.5,0,0,1,4.5,4.5v36.9951c0,.1045-.0035.208-.0108.3115C129.7031,478.0312,128.1914,496.4238,108,496.4238Zm-12.7271-19.1c.21,1.9942,1.7452,10.1,12.7271,10.1s12.5166-8.1054,12.7271-10.1V445.0381H95.2729Zm-4.5.209h0Z"/>
          <path class="b3ca4d71-dc8b-464b-b7b0-95c339ac73e1" d="M250,496.4238c-20.1914,0-21.7031-18.3926-21.7163-18.5791-.0073-.1035-.0108-.207-.0108-.3115V440.5381a4.5,4.5,0,0,1,4.5-4.5h34.4546a4.5,4.5,0,0,1,4.5,4.5v36.9951c0,.1045-.0039.208-.0107.3115C271.7041,478.0312,270.1924,496.4238,250,496.4238Zm-12.7271-19.1c.21,1.9942,1.7452,10.1,12.7271,10.1s12.5176-8.1054,12.7275-10.1V445.0381H237.2729Zm-4.5.209h0Z"/>
          <path class="b3ca4d71-dc8b-464b-b7b0-95c339ac73e1" d="M321,496.4238c-20.1924,0-21.7041-18.3926-21.7168-18.5791-.0068-.1035-.0107-.207-.0107-.3115V440.5381a4.5,4.5,0,0,1,4.5-4.5h34.455a4.5,4.5,0,0,1,4.5,4.5v36.9951c0,.1045-.0039.208-.0107.3115C342.7041,478.0312,341.1924,496.4238,321,496.4238Zm-12.7275-19.1c.21,1.9942,1.7451,10.1,12.7275,10.1s12.5176-8.1054,12.7275-10.1V445.0381h-25.455Zm-4.5.209h0Z"/>
          <path class="b3ca4d71-dc8b-464b-b7b0-95c339ac73e1" d="M392,496.4238c-20.1924,0-21.7041-18.3926-21.7168-18.5791-.0068-.1035-.0107-.207-.0107-.3115V440.5381a4.5,4.5,0,0,1,4.5-4.5h34.455a4.5,4.5,0,0,1,4.5,4.5v36.9951c0,.1045-.0039.208-.0107.3115C413.7041,478.0312,412.1924,496.4238,392,496.4238Zm-12.7275-19.1c.21,1.9942,1.7451,10.1,12.7275,10.1s12.5176-8.1054,12.7275-10.1V445.0381h-25.455Zm-4.5.209h0Z"/>
        </g>
        <g>
          <path class="b3ca4d71-dc8b-464b-b7b0-95c339ac73e1" d="M338.2275,63.9619h-34.455a4.5,4.5,0,0,1-4.5-4.5V22.4668c0-.1045.0039-.208.0107-.3115.0127-.1865,1.5244-18.5791,21.7168-18.5791s21.7041,18.3926,21.7168,18.5791c.0068.1035.0107.207.0107.3115V59.4619A4.5,4.5,0,0,1,338.2275,63.9619Zm-29.955-9h25.455V22.6758c-.21-1.9942-1.7451-10.1-12.7275-10.1s-12.5176,8.1054-12.7275,10.1Z"/>
          <path class="b3ca4d71-dc8b-464b-b7b0-95c339ac73e1" d="M409.2275,63.9619h-34.455a4.5,4.5,0,0,1-4.5-4.5V22.4668c0-.1045.0039-.208.0107-.3115.0127-.1865,1.5244-18.5791,21.7168-18.5791s21.7041,18.3926,21.7168,18.5791c.0068.1035.0107.207.0107.3115V59.4619A4.5,4.5,0,0,1,409.2275,63.9619Zm-29.955-9h25.455V22.6758c-.21-1.9942-1.7451-10.1-12.7275-10.1s-12.5176,8.1054-12.7275,10.1Z"/>
          <path class="b3ca4d71-dc8b-464b-b7b0-95c339ac73e1" d="M267.2275,63.9619H232.7729a4.5,4.5,0,0,1-4.5-4.5V22.4668c0-.1045.0035-.208.0108-.3115.0132-.1865,1.5249-18.5791,21.7163-18.5791s21.7041,18.3926,21.7168,18.5791c.0068.1035.0107.207.0107.3115V59.4619A4.5,4.5,0,0,1,267.2275,63.9619Zm-29.9546-9h25.4546V22.6758c-.21-1.9942-1.7451-10.1-12.7275-10.1s-12.5166,8.1054-12.7271,10.1Z"/>
          <path class="b3ca4d71-dc8b-464b-b7b0-95c339ac73e1" d="M196.2271,63.9619H161.7729a4.5,4.5,0,0,1-4.5-4.5V22.4668c0-.1045.0035-.208.0108-.3115.0132-.1865,1.5249-18.5791,21.7163-18.5791s21.7031,18.3926,21.7163,18.5791c.0073.1035.0108.207.0108.3115V59.4619A4.5,4.5,0,0,1,196.2271,63.9619Zm-29.9542-9h25.4542V22.6758c-.21-1.9942-1.7452-10.1-12.7271-10.1s-12.5166,8.1054-12.7271,10.1Z"/>
          <path class="b3ca4d71-dc8b-464b-b7b0-95c339ac73e1" d="M125.2271,63.9619H90.7729a4.5,4.5,0,0,1-4.5-4.5V22.4668c0-.1045.0035-.208.0108-.3115C86.2969,21.9688,87.8086,3.5762,108,3.5762s21.7031,18.3926,21.7163,18.5791c.0073.1035.0108.207.0108.3115V59.4619A4.5,4.5,0,0,1,125.2271,63.9619Zm-29.9542-9h25.4542V22.6758c-.21-1.9942-1.7452-10.1-12.7271-10.1s-12.5166,8.1054-12.7271,10.1Z"/>
        </g>
      </g>
      <path class="b3ca4d71-dc8b-464b-b7b0-95c339ac73e1" d="M133.8,154.9A21.1,21.1,0,1,1,154.9,133.8,21.1241,21.1241,0,0,1,133.8,154.9Zm0-33.2a12.1,12.1,0,1,0,12.1,12.1A12.1131,12.1131,0,0,0,133.8,121.7Z"/>
    </g>
  </g>
</svg>
