<svg data-name="Logo" xmlns="http://www.w3.org/2000/svg" viewBox="0 0 1747 351">
  <title>Logo-Landscape</title>
  <g data-name="Landscape-BlackBG">
    <g>
      <polygon points="245.161 210.069 176.024 140.931 106.887 210.069 37.749 140.931 3.181 175.5 72.318 244.637 106.887 279.206 176.024 210.069 245.161 279.206 348.867 175.5 314.298 140.931 245.161 210.069" style="fill: #003eff"/>
      <rect x="151.5802" y="12.7818" width="48.8874" height="48.8874" transform="translate(25.2338 135.3708) rotate(-45)" style="fill: #f9f9f9"/>
      <rect x="151.5802" y="289.3308" width="48.8874" height="48.8874" transform="translate(-170.3159 216.3702) rotate(-45)" style="fill: #f9f9f9"/>
      <rect x="82.443" y="81.919" width="48.8874" height="48.8874" transform="translate(-43.9034 106.7332) rotate(-45)" style="fill: #f9f9f9"/>
      <rect x="220.7175" y="81.919" width="48.8874" height="48.8874" transform="translate(-3.4038 204.5081) rotate(-45)" style="fill: #f9f9f9"/>
    </g>
    <g>
      <g>
        <path d="M526.4478,273.1035H489.4956l-17.329-157.49-17.0737,157.49H418.1407L396.7342,77.8965h25.994l14.5256,150.8647,16.819-150.8647H490.515l16.82,150.8647L521.86,77.8965h25.9932Z" style="fill: #f9f9f9"/>
        <path d="M623.5434,273.1035l-5.096-43.3223H589.65l-5.0967,43.3223H558.56l26.2479-195.207h38.2262l26.5033,195.207Zm-19.6224-165.39-11.4676,97.3481h22.9352Z" style="fill: #f9f9f9"/>
        <path d="M685.4717,273.1035V205.3167l-32.3648-127.42h26.2486l19.1124,88.4293L718.091,77.8965H744.34L711.4649,205.0613v68.0422Z" style="fill: #f9f9f9"/>
        <path d="M764.9814,273.1035V77.8965h69.8255v24.72H790.9754v59.632h42.0482v24.72H790.9754v86.1352Z" style="fill: #f9f9f9"/>
        <path d="M912.5341,273.1035l-5.0961-43.3223H878.6407l-5.0968,43.3223H847.5507l26.2479-195.207h38.2262l26.5032,195.207Zm-19.6224-165.39-11.4676,97.3481h22.9351Z" style="fill: #f9f9f9"/>
        <path d="M1018.5471,273.1035l-22.4258-80.2744h-9.9389v80.2744H960.1892V77.8965h43.3229c19.6225,0,35.9314,11.4683,35.9314,40.7742v31.3454c0,19.6224-4.5867,31.0907-18.8577,37.2069l23.9552,85.88ZM1013.45,121.9842c0-14.271-4.5867-19.3678-14.271-19.3678H986.1824V168.11h12.9969c9.6843,0,14.271-5.0968,14.271-19.3678Z" style="fill: #f9f9f9"/>
        <path d="M1066.7122,273.1035V77.8965h69.8255v24.72h-43.8316v59.632h42.0476v24.72h-42.0476v61.416h43.8316v24.7192Z" style="fill: #f9f9f9"/>
      </g>
      <g>
        <path d="M1248.664,216.2742c0-26.7579-44.3409-40.7742-44.3409-79V112.3c0-33.8934,18.603-37.7161,30.07-37.7161s30.0714,3.8227,30.0714,38.2262v33.1287h-15.8V108.4772c0-14.271-7.1348-19.3671-14.271-19.3671s-14.271,5.0961-14.271,19.3671V134.98c0,34.6581,44.3424,42.049,44.3424,78.4911V233.094c0,28.2866-6.3708,43.3222-30.0714,43.3222s-30.07-15.545-30.07-43.3222V207.8647h15.7989v34.6581c0,14.271,7.1362,19.3678,14.271,19.3678s14.271-5.0968,14.271-19.3678Z" style="fill: #003eff"/>
        <path d="M1309.0614,273.1035V93.6969h-24.21v-15.8h64.22v15.8h-24.21V273.1035Z" style="fill: #003eff"/>
        <path d="M1415.8383,77.8965h15.799V235.642c0,32.8748-12.7416,40.7742-30.0714,40.7742s-30.07-7.8994-30.07-40.7742V77.8965h15.8V242.5228c0,13.5063,6.3708,19.3678,14.27,19.3678,7.9,0,14.2724-5.8615,14.2724-19.3678Z" style="fill: #003eff"/>
        <path d="M1461.9647,273.1035V77.8965h24.21c24.7192,0,34.6581,6.3715,34.6581,40.7742V232.3293c0,34.4034-9.9389,40.7742-34.6581,40.7742Zm43.0676-160.0389c0-14.271-4.5867-19.3677-14.2709-19.3677h-12.9963V257.3031h12.9963c9.6842,0,14.2709-5.096,14.2709-19.367Z" style="fill: #003eff"/>
        <path d="M1550.6509,273.1035V77.8965h15.8v195.207Z" style="fill: #003eff"/>
        <path d="M1596.2665,115.358c0-32.874,12.743-40.7742,30.0714-40.7742s30.0713,7.9,30.0713,40.7742V235.642c0,32.8748-12.7416,40.7742-30.0713,40.7742s-30.0714-7.8994-30.0714-40.7742Zm44.3423-6.8808c0-13.5063-6.3707-19.3671-14.2709-19.3671s-14.271,5.8608-14.271,19.3671V242.5228c0,13.5063,6.3708,19.3678,14.271,19.3678s14.2709-5.8615,14.2709-19.3678Z" style="fill: #003eff"/>
        <path d="M1728.0188,216.2742c0-26.7579-44.3409-40.7742-44.3409-79V112.3c0-33.8934,18.6031-37.7161,30.07-37.7161s30.0714,3.8227,30.0714,38.2262v33.1287h-15.8V108.4772c0-14.271-7.1348-19.3671-14.271-19.3671s-14.271,5.0961-14.271,19.3671V134.98c0,34.6581,44.3424,42.049,44.3424,78.4911V233.094c0,28.2866-6.3708,43.3222-30.0714,43.3222s-30.07-15.545-30.07-43.3222V207.8647h15.7989v34.6581c0,14.271,7.1362,19.3678,14.271,19.3678s14.271-5.0968,14.271-19.3678Z" style="fill: #003eff"/>
      </g>
    </g>
  </g>
</svg>
