<svg data-name="Wayfare Studios Logo" xmlns="http://www.w3.org/2000/svg" viewBox="0 0 900 225">
  <title>wayfare-studios-logo</title>
  <g>
    <g>
      <polygon points="113.513 170.525 55.66 210.537 178.603 210.537 120.749 170.525 113.513 170.525" style="fill: #f9f9f9"/>
      <path d="M172.5468,110.046,117.1313,14.0635,61.7158,110.046ZM140.1855,91.3623H94.077l23.0543-39.9312Z" style="fill: #f9f9f9"/>
      <polygon points="183.334 128.73 161.76 128.73 185.431 169.729 126.598 128.897 107.665 128.897 48.832 169.729 72.503 128.73 50.929 128.73 3.697 210.537 22.891 210.537 49.811 191.853 49.723 191.853 113.513 147.581 120.749 147.581 184.54 191.853 184.451 191.853 211.372 210.537 230.565 210.537 183.334 128.73" style="fill: #003eff"/>
    </g>
    <g>
      <path d="M460.5173,139.3183H435.079L423.1492,30.899,411.3949,139.3183H385.9571L371.22,4.9347h17.8945l10,103.858L410.6935,4.9347h25.0874l11.5783,103.858,10-103.858h17.8944Z" style="fill: #f9f9f9"/>
      <path d="M529.9912,139.3183l-3.509-29.8242H506.658L503.15,139.3183H485.2551L503.325,4.9347H529.64l18.2454,134.3836ZM516.4826,25.4608l-7.8948,67.0163H524.377Z" style="fill: #f9f9f9"/>
      <path d="M575.255,139.3183V92.6526l-22.28-87.7179h18.07l13.1576,60.8762L597.7108,4.9347h18.07L593.1494,92.4771v46.8412Z" style="fill: #f9f9f9"/>
      <path d="M632.6227,139.3183V4.9347h48.0691V21.9518H650.5171V63.0039h28.9468v17.017H650.5171v59.2974Z" style="fill: #f9f9f9"/>
      <path d="M736.8326,139.3183l-3.509-29.8242H713.4994l-3.5085,29.8242H692.0965l18.07-134.3836h26.3152L754.727,139.3183ZM723.324,25.4608l-7.8948,67.0163h15.7892Z" style="fill: #f9f9f9"/>
      <path d="M812.4447,139.3183l-15.4383-55.262h-6.842v55.262H772.27V4.9347h29.8242c13.5085,0,24.7364,7.8944,24.7364,28.0695V54.5831c0,13.5085-3.158,21.4029-12.9826,25.6133l16.4911,59.1219ZM808.9362,35.2849c0-9.8241-3.158-13.3331-9.8246-13.3331h-8.9472v45.087h8.9472c6.6666,0,9.8246-3.5085,9.8246-13.3331Z" style="fill: #f9f9f9"/>
      <path d="M848.2335,139.3183V4.9347h48.0691V21.9518H866.1279V63.0039h28.9469v17.017H866.1279v42.28h30.1747v17.017Z" style="fill: #f9f9f9"/>
    </g>
    <g>
      <path d="M380.7883,218.276a22.86,22.86,0,0,1-8.436-4.6384l2.7025-5.6969a22.3746,22.3746,0,0,0,7.4866,4.2728,27.5078,27.5078,0,0,0,9.3859,1.6436q6.3549,0,9.4954-2.155a6.6423,6.6423,0,0,0,3.141-5.7335,5.6533,5.6533,0,0,0-1.7164-4.2733,11.4847,11.4847,0,0,0-4.2366-2.52q-2.52-.877-7.1214-1.9721a73.1891,73.1891,0,0,1-9.3131-2.7759,15.3792,15.3792,0,0,1-6.0625-4.2727,11.4113,11.4113,0,0,1-2.52-7.779,13.16,13.16,0,0,1,2.1545-7.3771,14.7934,14.7934,0,0,1,6.5372-5.2593,26.5186,26.5186,0,0,1,10.8833-1.9721,34.467,34.467,0,0,1,8.9112,1.1689,23.7153,23.7153,0,0,1,7.5233,3.3595l-2.4106,5.8435a26.4972,26.4972,0,0,0-6.8658-3.1043,25.6568,25.6568,0,0,0-7.1581-1.0589q-6.2094,0-9.313,2.2639a6.9358,6.9358,0,0,0-3.1039,5.8436,5.589,5.589,0,0,0,1.7526,4.2727,12.1488,12.1488,0,0,0,4.3461,2.5568,67.5269,67.5269,0,0,0,7.0486,1.9355,71.58,71.58,0,0,1,9.2764,2.7758,15.617,15.617,0,0,1,6.0258,4.2361,11.1587,11.1587,0,0,1,2.52,7.6695,13.0522,13.0522,0,0,1-2.1916,7.3409,14.6689,14.6689,0,0,1-6.6468,5.2588,27.4849,27.4849,0,0,1-10.9561,1.9355A34.9768,34.9768,0,0,1,380.7883,218.276Z" style="fill: #003eff"/>
      <path d="M437.067,174.7066h-17.53v-6.3549H461.828v6.3549h-17.53v44.7745H437.067Z" style="fill: #003eff"/>
      <path d="M479.358,214.2223q-5.697-5.8434-5.6973-16.8V168.3517h7.3042V197.13q0,16.4343,14.39,16.4345,7.0119,0,10.7371-4.0537t3.7247-12.3808V168.3517h7.0853v29.0709q0,11.03-5.6973,16.8358t-15.9232,5.8069Q485.0541,220.0653,479.358,214.2223Z" style="fill: #003eff"/>
      <path d="M537.1331,168.3517H558.68a31.1648,31.1648,0,0,1,14.3895,3.2138,23.6261,23.6261,0,0,1,9.7511,9.0207,27.346,27.346,0,0,1,0,26.66,23.613,23.613,0,0,1-9.7511,9.0207,31.1461,31.1461,0,0,1-14.3895,3.2139H537.1331Zm21.1091,44.775a23.655,23.655,0,0,0,10.9195-2.4107,17.4259,17.4259,0,0,0,7.2676-6.7562,21.0034,21.0034,0,0,0,0-20.0864,17.43,17.43,0,0,0-7.2676-6.7567,23.6561,23.6561,0,0,0-10.9195-2.41H544.4374v38.42Z" style="fill: #003eff"/>
      <path d="M602.7239,168.3517h7.3043v51.1294h-7.3043Z" style="fill: #003eff"/>
      <path d="M639.7556,216.6691a25.0973,25.0973,0,0,1-9.7511-9.3859,26.99,26.99,0,0,1,0-26.7331,25.0994,25.0994,0,0,1,9.7511-9.3859,30.1978,30.1978,0,0,1,27.8287,0,24.9288,24.9288,0,0,1,9.7149,9.3492,27.3748,27.3748,0,0,1,0,26.8064,24.9256,24.9256,0,0,1-9.7149,9.3493,30.2017,30.2017,0,0,1-27.8287,0Zm24.0673-5.6607a18.7522,18.7522,0,0,0,7.0847-7.0486,20.7461,20.7461,0,0,0,0-20.0864,18.76,18.76,0,0,0-7.0847-7.0486,20.0953,20.0953,0,0,0-10.1163-2.5568,20.4963,20.4963,0,0,0-10.19,2.5568,18.6066,18.6066,0,0,0-7.1581,7.0486,20.7461,20.7461,0,0,0,0,20.0864,18.599,18.599,0,0,0,7.1581,7.0486,20.4844,20.4844,0,0,0,10.19,2.5563A20.0838,20.0838,0,0,0,663.8229,211.0084Z" style="fill: #003eff"/>
      <path d="M701.0008,218.276a22.86,22.86,0,0,1-8.436-4.6384l2.7025-5.6969a22.3746,22.3746,0,0,0,7.4866,4.2728,27.5078,27.5078,0,0,0,9.3859,1.6436q6.3549,0,9.4954-2.155a6.6423,6.6423,0,0,0,3.141-5.7335,5.6533,5.6533,0,0,0-1.7164-4.2733,11.4847,11.4847,0,0,0-4.2366-2.52q-2.52-.877-7.1214-1.9721a73.1891,73.1891,0,0,1-9.3131-2.7759,15.3792,15.3792,0,0,1-6.0625-4.2727,11.4113,11.4113,0,0,1-2.52-7.779,13.16,13.16,0,0,1,2.1545-7.3771,14.7934,14.7934,0,0,1,6.5372-5.2593,26.5186,26.5186,0,0,1,10.8833-1.9721,34.467,34.467,0,0,1,8.9112,1.1689,23.7153,23.7153,0,0,1,7.5233,3.3595l-2.4106,5.8435a26.4972,26.4972,0,0,0-6.8658-3.1043,25.6568,25.6568,0,0,0-7.1581-1.0589q-6.2094,0-9.313,2.2639a6.9358,6.9358,0,0,0-3.1039,5.8436,5.589,5.589,0,0,0,1.7526,4.2727,12.1488,12.1488,0,0,0,4.3461,2.5568,67.5269,67.5269,0,0,0,7.0486,1.9355,71.58,71.58,0,0,1,9.2764,2.7758,15.617,15.617,0,0,1,6.0258,4.2361,11.1587,11.1587,0,0,1,2.52,7.6695,13.0522,13.0522,0,0,1-2.1916,7.3409,14.6689,14.6689,0,0,1-6.6468,5.2588,27.4849,27.4849,0,0,1-10.9561,1.9355A34.9768,34.9768,0,0,1,701.0008,218.276Z" style="fill: #003eff"/>
    </g>
    <rect x="298.5162" y="5.0546" width="4.2203" height="214.4911" style="fill: #f9f9f9"/>
  </g>
</svg>
