<svg id="a0042016-d8e1-47c2-9ee9-31296bb1569b" data-name="Layer 1" xmlns="http://www.w3.org/2000/svg" viewBox="0 0 400 400">
  <defs>
    <style>
      .e7758ff0-f82e-47e9-bd56-159bfe8c857a {
        fill: #252f3e;
      }

      .f0991da1-b418-49fc-b549-64b26136f40f {
        fill: #f90;
      }
    </style>
  </defs>
  <title>aws-icon</title>
  <g>
    <path class="e7758ff0-f82e-47e9-bd56-159bfe8c857a" d="M134.3965,175.4a30.2564,30.2564,0,0,0,1.1,8.9,53.5256,53.5256,0,0,0,3.2,7.2,4.35,4.35,0,0,1,.7,2.3,3.9592,3.9592,0,0,1-1.9,3l-6.3,4.2a4.7946,4.7946,0,0,1-2.6.9,4.6013,4.6013,0,0,1-3-1.4,30.9367,30.9367,0,0,1-3.6-4.7c-1-1.7-2-3.6-3.1-5.9q-11.7,13.8-29.4,13.8c-8.4,0-15.1-2.4-20-7.2s-7.4-11.2-7.4-19.2c0-8.5,3-15.4,9.1-20.6s14.2-7.8,24.5-7.8a79.1755,79.1755,0,0,1,10.6.8c3.7.5,7.5,1.3,11.5,2.2v-7.3c0-7.6-1.6-12.9-4.7-16-3.2-3.1-8.6-4.6-16.3-4.6a45.4985,45.4985,0,0,0-10.8,1.3,79.6807,79.6807,0,0,0-10.8,3.4,28.6933,28.6933,0,0,1-3.5,1.3,6.1337,6.1337,0,0,1-1.6.3c-1.4,0-2.1-1-2.1-3.1v-4.9a6.3276,6.3276,0,0,1,.7-3.5,7.4878,7.4878,0,0,1,2.8-2.1,57.5713,57.5713,0,0,1,12.6-4.5,60.6278,60.6278,0,0,1,15.6-1.9c11.9,0,20.6,2.7,26.2,8.1,5.5,5.4,8.3,13.6,8.3,24.6v32.4Zm-40.6,15.2a32.4089,32.4089,0,0,0,10.3-1.8,22.2837,22.2837,0,0,0,9.5-6.4,15.8727,15.8727,0,0,0,3.4-6.4,35.9,35.9,0,0,0,1-8.7v-4.2a83.5115,83.5115,0,0,0-9.2-1.7,75.3513,75.3513,0,0,0-9.4-.6c-6.7,0-11.6,1.3-14.9,4s-4.9,6.5-4.9,11.5c0,4.7,1.2,8.2,3.7,10.6C85.6965,189.4,89.1965,190.6,93.7965,190.6Zm80.3,10.8a5.5827,5.5827,0,0,1-3.8-1,8.15,8.15,0,0,1-2.1-3.9l-23.5-77.3a17.5169,17.5169,0,0,1-.9-4,2.1937,2.1937,0,0,1,2.4-2.5h9.8c1.9,0,3.2.3,3.9,1,.8.6,1.4,2,2,3.9l16.8,66.2,15.6-66.2c.5-2,1.1-3.3,1.9-3.9a6.8788,6.8788,0,0,1,4-1h8c1.9,0,3.2.3,4,1a6.7384,6.7384,0,0,1,1.9,3.9l15.8,67,17.3-67a8.5751,8.5751,0,0,1,2-3.9,6.5243,6.5243,0,0,1,3.9-1h9.3a2.2229,2.2229,0,0,1,2.5,2.5,9.9713,9.9713,0,0,1-.2,1.6,14.2273,14.2273,0,0,1-.7,2.5l-24.1,77.3q-.9,3-2.1,3.9a6.3976,6.3976,0,0,1-3.8,1h-8.6c-1.9,0-3.2-.3-4-1a7.0894,7.0894,0,0,1-1.9-4l-15.5-64.5-15.4,64.4a7.8052,7.8052,0,0,1-1.9,4,6.1982,6.1982,0,0,1-4,1Zm128.5,2.7a66.175,66.175,0,0,1-15.4-1.8c-5-1.2-8.9-2.5-11.5-4a7.2053,7.2053,0,0,1-3.1-2.8,7.0585,7.0585,0,0,1-.6-2.8v-5.1c0-2.1.8-3.1,2.3-3.1a5.6625,5.6625,0,0,1,1.8.3c.6.2,1.5.6,2.5,1a54.3936,54.3936,0,0,0,11,3.5,60.0542,60.0542,0,0,0,11.9,1.2c6.3,0,11.2-1.1,14.6-3.3a10.7686,10.7686,0,0,0,5.2-9.5,9.7383,9.7383,0,0,0-2.7-7c-1.8-1.9-5.2-3.6-10.1-5.2l-14.5-4.5c-7.3-2.3-12.7-5.7-16-10.2a23.8251,23.8251,0,0,1-5-14.5,22.2555,22.2555,0,0,1,2.7-11.1,25.7121,25.7121,0,0,1,7.2-8.2,31.7388,31.7388,0,0,1,10.4-5.2,43.5843,43.5843,0,0,1,12.6-1.7,50.2006,50.2006,0,0,1,6.7.4c2.3.3,4.4.7,6.5,1.1,2,.5,3.9,1,5.7,1.6a21.8262,21.8262,0,0,1,4.2,1.8,8.6473,8.6473,0,0,1,3,2.5,5.389,5.389,0,0,1,.9,3.3v4.7c0,2.1-.8,3.2-2.3,3.2a10.402,10.402,0,0,1-3.8-1.2,45.7483,45.7483,0,0,0-19.2-3.9c-5.7,0-10.2.9-13.3,2.8s-4.7,4.8-4.7,8.9a9.4429,9.4429,0,0,0,3,7.1c2,1.9,5.7,3.8,11,5.5l14.2,4.5c7.2,2.3,12.4,5.5,15.5,9.6a22.6285,22.6285,0,0,1,4.6,14,25.7078,25.7078,0,0,1-2.6,11.6,26.8941,26.8941,0,0,1-7.3,8.8,32.2346,32.2346,0,0,1-11.1,5.6A47.553,47.553,0,0,1,302.5965,204.1Z"/>
    <path class="f0991da1-b418-49fc-b549-64b26136f40f" d="M321.4965,252.7c-32.9,24.3-80.7,37.2-121.8,37.2-57.6,0-109.5-21.3-148.7-56.7-3.1-2.8-.3-6.6,3.4-4.4,42.4,24.6,94.7,39.5,148.8,39.5a296.9353,296.9353,0,0,0,113.5-23.2C322.1965,242.6,326.8965,248.7,321.4965,252.7Zm13.7-15.6c-4.2-5.4-27.8-2.6-38.5-1.3-3.2.4-3.7-2.4-.8-4.5,18.8-13.2,49.7-9.4,53.3-5,3.6,4.5-1,35.4-18.6,50.2-2.7,2.3-5.3,1.1-4.1-1.9C330.4965,264.7,339.3965,242.4,335.1965,237.1Z"/>
  </g>
</svg>
