<svg id="bcf2e6f8-b572-4ec8-abfb-9795d7ec1825" data-name="Layer 1" xmlns="http://www.w3.org/2000/svg" viewBox="0 0 500 500">
  <defs>
    <style>
      .b94cefa3-8e9b-4fb6-8d90-6ee87d7fe866 {
        fill: #95bf47;
      }

      .a36bf91e-5c44-4b0d-9a13-1cb50e0da924 {
        fill: #5e8e3e;
      }

      .ba07d3df-4750-4943-9c7d-417781f48071 {
        fill: #fff;
      }

      .a248cd62-e999-4f5b-8d25-adc78d707349 {
        fill: #231f20;
      }
    </style>
  </defs>
  <title>shopify-icon</title>
  <g>
    <g>
      <path class="b94cefa3-8e9b-4fb6-8d90-6ee87d7fe866" d="M109.1175,206.27a1.3306,1.3306,0,0,0-1.2026-1.1183c-.5007-.0417-11.0911-.8265-11.0911-.8265s-7.3549-7.3016-8.1622-8.11-2.3845-.5627-2.9968-.3826c-.091.0267-1.6072.495-4.1165,1.2711-2.4567-7.07-6.7926-13.5669-14.4205-13.5669-.2108,0-.4274.01-.6452.0215-2.1693-2.8693-4.8563-4.1158-7.1775-4.1158-17.7694,0-26.2587,22.214-28.9205,33.5021-6.9047,2.1392-11.81,3.66-12.4367,3.8569-3.8544,1.21-3.9755,1.3308-4.4809,4.9622C13.0843,224.5135,3,302.5024,3,302.5024l78.5809,14.7229,42.5773-9.2115S109.2122,206.9632,109.1175,206.27Zm-31.9128-7.8223c-1.9727.61-4.2161,1.3046-6.6479,2.0573.0015-.4681.0034-.9291.0034-1.4334a32.6014,32.6014,0,0,0-1.5883-10.736C72.9025,188.8293,75.5209,193.3012,77.2047,198.4477Zm-13.1075-9.2416c1.0922,2.7386,1.803,6.6684,1.803,11.9706,0,.2712-.0023.52-.0043.7712-4.3255,1.339-9.0236,2.7935-13.7328,4.2517C54.8075,195.9948,59.7631,191.0659,64.0972,189.2061ZM58.8167,184.21a4.0129,4.0129,0,0,1,2.28.7692c-5.6954,2.6795-11.7991,9.4292-14.3774,22.9063-3.7676,1.1668-7.45,2.3073-10.855,3.3621C38.8844,200.9667,46.0537,184.21,58.8167,184.21Z"/>
      <path class="a36bf91e-5c44-4b0d-9a13-1cb50e0da924" d="M107.9149,205.1517c-.5007-.0417-11.0911-.8264-11.0911-.8264s-7.3549-7.3017-8.1622-8.11a2.011,2.011,0,0,0-1.1348-.5221L81.5853,317.2244l42.5729-9.2105S109.2122,206.9632,109.1174,206.27A1.33,1.33,0,0,0,107.9149,205.1517Z"/>
      <path class="ba07d3df-4750-4943-9c7d-417781f48071" d="M67.1275,228.6778,61.878,244.2947A24.1473,24.1473,0,0,0,51.64,241.8389c-8.2667,0-8.682,5.1883-8.682,6.4952,0,7.1328,18.5917,9.8653,18.5917,26.5717,0,13.1438-8.3359,21.6083-19.5773,21.6083-13.49,0-20.3874-8.3954-20.3874-8.3954l3.6118-11.9331s7.0907,6.0876,13.0746,6.0876a5.2747,5.2747,0,0,0,5.5-5.3267c0-9.3044-15.2537-9.7194-15.2537-25.0077,0-12.8671,9.2353-25.319,27.8787-25.319C63.5791,226.62,67.1275,228.6778,67.1275,228.6778Z"/>
    </g>
    <path id="ba5c2b58-a94b-48a7-ad17-14fec17c73df" data-name="s" class="a248cd62-e999-4f5b-8d25-adc78d707349" d="M173.7925,257.9537c-4.2462-2.3046-6.43-4.2457-6.43-6.9152,0-3.3971,3.0328-5.58,7.7645-5.58a27.7426,27.7426,0,0,1,10.434,2.3048l3.8822-11.89s-3.57-2.7906-14.0734-2.7906c-14.62,0-24.75,8.3714-24.75,20.14,0,6.6722,4.7314,11.7682,11.04,15.4076,5.096,2.9117,6.9157,4.9747,6.9157,8.0077,0,3.1547-2.548,5.7023-7.2794,5.7023-7.0489,0-13.71-3.64-13.71-3.64l-4.1245,11.89s6.15,4.1245,16.5,4.1245c15.0444,0,25.8416-7.4,25.8416-20.7457C185.8037,266.8107,180.3444,261.7149,173.7925,257.9537Z"/>
    <path id="f1e151d8-7ed1-4a62-a668-76c92a627c6b" data-name="h" class="a248cd62-e999-4f5b-8d25-adc78d707349" d="M233.7264,232.9616c-7.4005,0-13.224,3.5181-17.7128,8.8563l-.243-.1211,6.43-33.6063H205.4584L189.2011,293.623h16.7425l5.581-29.2386c2.1837-11.0407,7.886-17.8347,13.2244-17.8347,3.76,0,5.217,2.5476,5.217,6.1877a38.2543,38.2543,0,0,1-.7284,7.4l-6.3087,33.4851h16.7429l6.5511-34.5768a62.547,62.547,0,0,0,1.2136-10.9194C247.4365,238.6639,242.4616,232.9616,233.7264,232.9616Z"/>
    <path id="b373ad6e-3f01-47e5-893d-f47319f39eab" data-name="o" class="a248cd62-e999-4f5b-8d25-adc78d707349" d="M285.29,232.9616c-20.14,0-33.4851,18.1984-33.4851,38.4592,0,12.9816,8.0069,23.415,23.051,23.415,19.7758,0,33.121-17.7127,33.121-38.4591C307.9769,244.3659,300.9405,232.9616,285.29,232.9616Zm-8.25,49.0145c-5.7023,0-8.1288-4.853-8.1288-10.9188,0-9.5846,4.9741-25.2355,14.0734-25.2355,5.9446,0,7.8858,5.0956,7.8858,10.07C290.8705,266.2045,285.8965,281.9761,277.04,281.9761Z"/>
    <path id="ae5604cf-6a51-4d38-aef2-2daebdce6156" data-name="p" class="a248cd62-e999-4f5b-8d25-adc78d707349" d="M350.8053,232.9616c-11.3,0-17.7136,9.9485-17.7136,9.9485h-.2423l.9707-8.978h-14.801c-.7283,6.0661-2.0631,15.2867-3.3978,22.2022l-11.6471,61.268h16.7429l4.61-24.75h.3643s3.4375,2.1833,9.8276,2.1833c19.654,0,32.5137-20.1391,32.5137-40.5214C368.0326,243.0316,363.0587,232.9616,350.8053,232.9616Zm-16.0146,49.2567a10.6288,10.6288,0,0,1-6.9153-2.4257l2.7906-15.6512c1.9412-10.4334,7.4005-17.349,13.224-17.349,5.0952,0,6.6723,4.7314,6.6723,9.22C350.5623,266.8107,344.1322,282.2183,334.7907,282.2183Z"/>
    <path id="a70a35e4-191e-4435-9aa3-ae3508c7ccc4" data-name="dot" class="a248cd62-e999-4f5b-8d25-adc78d707349" d="M391.9347,208.94a9.5551,9.5551,0,0,0-9.5839,9.7059c0,4.9744,3.154,8.3716,7.8858,8.3716h.243a9.4547,9.4547,0,0,0,9.827-9.7059A7.96,7.96,0,0,0,391.9347,208.94Z"/>
    <polygon id="b1eebd71-72d0-4e3a-a916-a565c1643a9b" data-name="i" class="a248cd62-e999-4f5b-8d25-adc78d707349" points="368.52 293.623 385.263 293.623 396.666 234.296 379.803 234.296 368.52 293.623"/>
    <path id="edff0f2d-9f7d-4e58-a9b6-e659f952ec35" data-name="f" class="a248cd62-e999-4f5b-8d25-adc78d707349" d="M439.25,234.1747H427.6032l.6065-2.79c.9706-5.7023,4.3676-10.7979,9.9488-10.7979a17.4476,17.4476,0,0,1,5.3374.849l3.276-13.1028s-2.9119-1.4559-9.0994-1.4559c-5.9446,0-11.8892,1.6989-16.378,5.5813-5.7024,4.8529-8.3711,11.8893-9.7059,18.9263l-.4853,2.79h-7.7646l-2.4265,12.6177h7.7647L399.82,293.623h16.7429l8.8564-46.8306H436.945Z"/>
    <path id="e77b6613-bee1-40e4-98dd-36f2eae7fc4d" data-name="y" class="a248cd62-e999-4f5b-8d25-adc78d707349" d="M479.53,234.2962s-10.4658,26.37-15.1651,40.7646h-.2422c-.3217-4.6343-4.1255-40.7646-4.1255-40.7646H442.4051l10.07,54.4739a3.5638,3.5638,0,0,1-.3642,2.7906,28.6454,28.6454,0,0,1-9.0993,10.0692,36.22,36.22,0,0,1-9.4629,4.7318l4.61,14.1954a38.2407,38.2407,0,0,0,16.3789-9.0994c7.6436-7.1583,14.68-18.1989,21.9592-33.2429L497,234.2962Z"/>
  </g>
</svg>
